<svg xmlns="http://www.w3.org/2000/svg" width="304.685" height="80.891" viewBox="0 0 304.685 80.891"><defs><style>.a,.b{fill:#fff;}.b{stroke:rgba(0,0,0,0);stroke-miterlimit:10;}</style></defs><g transform="translate(0.72 0.692)"><path class="a" d="M-2026.857-2407.419c-.915,0-1.828-.023-2.715-.071l2.985-8.661v-5.809h.6v4.066l1.427-4.125a13.108,13.108,0,0,0,6.983-2.172,6.991,6.991,0,0,0,3-5.852,6.639,6.639,0,0,0-3.7-5.923c-.378-.222-.8-.441-1.249-.653l.168-.485v-11.516l3.389-3.388v-1.127l.391.11.208.059v1.208l-3.389,3.388v9.52l4.733-13.733c1.111.34,2.158.692,3.114,1.041.622.23,1.238.472,1.828.724v16.67l1.694-1.695v-10.683l2.288-2.289c.157.093.319.193.492.3l-2.217,2.217v10.683l-2.256,2.256v4.815a.96.96,0,0,1,.583-.194.965.965,0,0,1,.685.282.96.96,0,0,1,.284.686.965.965,0,0,1-.116.458l8.78,8.781c-.113.145-.232.292-.357.441l-8.824-8.823a.982.982,0,0,1-.457.114.961.961,0,0,1-.582-.2v2.794l.012.015a.958.958,0,0,1,.284.682.942.942,0,0,1-.166.536l7.081,7.08v.5c-.178.159-.369.316-.558.47v-.737l-6.652-6.651v4.769l3.875,3.878v.744c-.187.119-.376.235-.56.348v-.859l-3.316-3.316v5.914A43.146,43.146,0,0,1-2026.857-2407.419Zm-2.854-.078h0l-.6-.038v-14.681a1.151,1.151,0,0,1-.257-.108c.257.051.535.1.862.145v14.679Zm-4.318-.446h0l-.558-.089v-5.529l.066-.066.073-.075,1.27-1.268v-1.516a.963.963,0,0,1-.687-.926.968.968,0,0,1,.966-.969h0a.959.959,0,0,1,.683.281.961.961,0,0,1,.281.684.963.963,0,0,1-.282.685.974.974,0,0,1-.405.244v1.745l-1.409,1.408v5.383Zm-1.55-.267h0l-.558-.11v-3.6a.958.958,0,0,1-.385.223v1.32h-3.5v1.034l-.064-.018-.5-.167v-1.408h3.5v-.759a.974.974,0,0,1-.4-.241.957.957,0,0,1-.285-.685.961.961,0,0,1,.283-.685.966.966,0,0,1,.685-.284.96.96,0,0,1,.666.266v-7.54l1.837-1.837a.941.941,0,0,1-.118-.457.952.952,0,0,1,.082-.387,13.762,13.762,0,0,0,1.8.724.972.972,0,0,1-.225.357.966.966,0,0,1-.685.285.959.959,0,0,1-.456-.117l-1.671,1.673v12.424Zm-6.33-1.8h0c-.214-.084-.416-.164-.6-.239v-11.963a1.11,1.11,0,0,1-.5-.289,1.12,1.12,0,0,1-.332-.8,1.124,1.124,0,0,1,.332-.8,1.115,1.115,0,0,1,.794-.328h.012a1.112,1.112,0,0,1,.794.328,1.134,1.134,0,0,1,.33.8,1.133,1.133,0,0,1-.83,1.09v12.2Zm-1.876-.792h0l-.073-.034-.038-.018a28.747,28.747,0,0,1-11.677-9.433,22.093,22.093,0,0,1-4.232-12.945h8.287l2.711,7.862.344.344v.656l2.235,6.479v-9.575l-3.373-3.373v-2.4h.6v2.14l3.373,3.373v11.568l1.842,5.34Zm47.328-11.728H-1998v-4.072a.989.989,0,0,1-.4-.242.959.959,0,0,1-.284-.683.97.97,0,0,1,.97-.968.968.968,0,0,1,.969.968.975.975,0,0,1-.688.926v3.512h1.224c-.079.19-.157.379-.237.558Zm-6.526-7.6a.968.968,0,0,1-.968-.969.956.956,0,0,1,.283-.685.957.957,0,0,1,.4-.245v-.666a.968.968,0,0,1-.342-.222.963.963,0,0,1-.284-.685.954.954,0,0,1,.284-.681.959.959,0,0,1,.342-.223v-1.595h6.3a.975.975,0,0,1,.925-.687.96.96,0,0,1,.574.189c.1.4.2.815.28,1.233a.966.966,0,0,1-.854.515.976.976,0,0,1-.927-.688h-5.739v1a.975.975,0,0,1,.465.259.967.967,0,0,1,.167,1.144l.305.3h6.922c.014.178.027.371.037.56H-2002l-.469-.471a.908.908,0,0,1-.238.091v.63a.98.98,0,0,1,.687.928.968.968,0,0,1-.959.963Zm-19.638-7.712h0l-.6-.2v-6.508a1.133,1.133,0,0,1-.988-1.12,1.127,1.127,0,0,1,.33-.8,1.128,1.128,0,0,1,.8-.331,1.133,1.133,0,0,1,.8.33,1.123,1.123,0,0,1,.33.8,1.131,1.131,0,0,1-.673,1.033v6.791Zm-3.913-1.145h0l-.6-.15v-3.746a1.132,1.132,0,0,1-.828-1.088,1.131,1.131,0,0,1,1.131-1.131,1.131,1.131,0,0,1,1.131,1.131h0a1.13,1.13,0,0,1-.33.8,1.148,1.148,0,0,1-.5.288v3.89Zm22.814-.343a.968.968,0,0,1-.968-.968.968.968,0,0,1,.968-.969.955.955,0,0,1,.683.284.919.919,0,0,1,.244.405h4.385a.96.96,0,0,1,.242-.405.956.956,0,0,1,.683-.283c.039,0,.079,0,.118,0,.269.464.518.94.738,1.416a.947.947,0,0,1-.178.229.962.962,0,0,1-.685.281.959.959,0,0,1-.683-.282.968.968,0,0,1-.242-.405h-4.387a.96.96,0,0,1-.908.69Zm-27.392-.7h0a62.533,62.533,0,0,1-11.391-3.583l-.435-1.249-6.506-6.506v-5.985l-2.654-2.654a1.129,1.129,0,0,1-.558.148,1.135,1.135,0,0,1-1.088-.829v3.2l-2.1,2.1c-.111-.252-.178-.43-.252-.6l1.755-1.757v-16.449c.188-.3.391-.612.6-.916v13.813a1.133,1.133,0,0,1,1.088-.829,1.133,1.133,0,0,1,1.133,1.132,1.119,1.119,0,0,1-.148.557l2.83,2.832v5.986l5.443,5.443-1.9-5.408-1.748-1.748v-3.237l-1.892-5.4-2.088-2.09v-3.874l-2.583-7.369a25,25,0,0,1,4.625-4.854,28.938,28.938,0,0,1,9.727-5.134,41.645,41.645,0,0,1,12.318-1.71,47,47,0,0,1,12.377,1.519v23.232h-.6v-22.65l-2.722,7.646v8.062c-.1-.105-.193-.21-.31-.33-.087-.09-.178-.179-.289-.278v-5.762l-1.639,4.605a14.513,14.513,0,0,0-6.892-1.427,12.211,12.211,0,0,0-7.97,2.34,7.436,7.436,0,0,0-2.821,5.959,6.347,6.347,0,0,0,3.21,5.5,29.988,29.988,0,0,0,9.408,3.319v1.948l-1.871,1.871-1.94,5.454,5.614-5.611v-3.29l.425.087.178.037v3.41l-6.685,6.685-.672,1.885v.029a1.13,1.13,0,0,1-.271.733l-.713,2Zm5.329-14.981h0l-.8,2.249.8-.8Zm-20.654.178h0v1.273l.685.687Zm-3.984-11.368h0v1.91l1.032,1.031Zm47.815,23.72a.972.972,0,0,1-.97-.966.972.972,0,0,1,.97-.969.974.974,0,0,1,.926.689h2.6c.155.191.3.378.442.56h-3.042a.975.975,0,0,1-.922.669Zm-16.959-8.284a1.134,1.134,0,0,1-1.133-1.131,1.14,1.14,0,0,1,.83-1.09v-1.136l.44.1.162.039v.993a1.137,1.137,0,0,1,.831,1.088,1.136,1.136,0,0,1-1.129,1.125Zm-37.8-10.917h0c-.031-.463-.044-.935-.044-1.4a22.7,22.7,0,0,1,.348-4v5.1l-.3.3Zm50.255-.551h-.676a.976.976,0,0,1-.631-.908.964.964,0,0,1,.283-.685.962.962,0,0,1,.683-.281.961.961,0,0,1,.685.282.956.956,0,0,1,.244.41H-1995q.012.273.018.55h-11.534a.98.98,0,0,1-.59.632Zm-1.981,0h-1.6l1.6-4.677v4.675Zm1.543-3.092a.968.968,0,0,1-.968-.969.965.965,0,0,1,.284-.685.961.961,0,0,1,.683-.282.963.963,0,0,1,.683.282.955.955,0,0,1,.246.41h11.275c.032.178.063.366.089.549h-11.368a.975.975,0,0,1-.92.675Zm-5.541-3.171h0a.968.968,0,0,1-.967-.97.956.956,0,0,1,.282-.681.961.961,0,0,1,.683-.284.955.955,0,0,1,.685.283.963.963,0,0,1,.244.409h13.507a.934.934,0,0,1,.892-.651.926.926,0,0,1,.926.925.927.927,0,0,1-.27.656.92.92,0,0,1-.656.272.922.922,0,0,1-.654-.272.927.927,0,0,1-.23-.38h-13.507a.974.974,0,0,1-.936.689Zm2.584-3.888a.97.97,0,0,1-.97-.968.97.97,0,0,1,.97-.968.976.976,0,0,1,.927.695h11.655c.111.178.214.371.312.55h-11.967a.976.976,0,0,1-.927.687Zm2.721-5.191a.96.96,0,0,1-.683-.282.945.945,0,0,1-.282-.683.956.956,0,0,1,.021-.2l-3.069-2.371v-3.467l.134.049.425.162v2.982l2.786,2.151a.971.971,0,0,1,.672-.269.968.968,0,0,1,.967.969.969.969,0,0,1-.963.944Z" transform="translate(2298.771 2487.001)"/><path class="a" d="M-573.241,259.789h-8.518v-2.351l4.642-2.68v1.04a.969.969,0,0,0-.688.95.971.971,0,0,0,.732.917.969.969,0,0,0,.236.029.97.97,0,0,0,.842-.491.972.972,0,0,0-.157-1.163.959.959,0,0,0-.4-.242v-1.365l3.313-1.913v7.268Zm32.818,0h-3.717v-6.533l1.409-1.408V250.1a.963.963,0,0,0,.687-.927.956.956,0,0,0-.283-.684.966.966,0,0,0-.681-.283.966.966,0,0,0-.956.827.974.974,0,0,0,.673,1.066v1.515l-1.27,1.27-.073.075-.066.066v6.76h-.981V245.941l1.671-1.67a.959.959,0,0,0,.456.115.972.972,0,0,0,.968-.968.97.97,0,0,0-.968-.968.97.97,0,0,0-.968.968.938.938,0,0,0,.116.457l-1.836,1.835v7.544a.959.959,0,0,0-.673-.274.958.958,0,0,0-.693.293.96.96,0,0,0-.274.687.96.96,0,0,0,.292.68.96.96,0,0,0,.4.242v.758h-3.51v4.14h-1.321V244.37a1.13,1.13,0,0,0,.792-.8,1.134,1.134,0,0,0-.293-1.088,1.125,1.125,0,0,0-.8-.332,1.12,1.12,0,0,0-.474.1,1.137,1.137,0,0,0-.653,1.119,1.133,1.133,0,0,0,.824,1v13.753a.965.965,0,0,0-.516-.15l-2.6-7.533v-10.27l1.775-4.21-4.71-8.151-.436.116v-.4l1.3-.346.771,1.337a2.275,2.275,0,0,1,.839-.9,7.062,7.062,0,0,1,1.549-.86l2.486-2.494.146.418-1.861,1.867.029,0h.057c.151,0,.25.04.286.115.047.1-.011.252-.167.446a5.575,5.575,0,0,1-1.624,1.2,3.716,3.716,0,0,1-1.441.478.589.589,0,0,1-.146-.016l3.442,5.962,1.816-4.309,2.244,1.79.583,1.662v.451a1.115,1.115,0,0,0-.5.289,1.133,1.133,0,0,0-.094,1.495,1.126,1.126,0,0,0,.893.436,1.131,1.131,0,0,0,.579-.16l1.589,4.533,1.653-4.637a1.13,1.13,0,0,0,.733.27,1.126,1.126,0,0,0,.475-.1,1.135,1.135,0,0,0,.656-1.027,1.131,1.131,0,0,0-.829-1.09v-.967l.342-.963,2.8-2.233a1.14,1.14,0,0,0,.746.278,1.138,1.138,0,0,0,.755-.286,1.141,1.141,0,0,0,.193-1.488,1.137,1.137,0,0,0-.947-.506,1.128,1.128,0,0,0-.5.116,1.143,1.143,0,0,0-.58,1.384l-2.083,1.664,2.408-6.76a1.125,1.125,0,0,0,.271-.733V223.8l.672-1.886,6.682-6.683v-5.988l2.654-2.653a1.128,1.128,0,0,0,.557.147,1.122,1.122,0,0,0,.432-.086,1.122,1.122,0,0,0,.657-.743v3.2l2.5,2.5v2.967l-3.389,3.389v11.516l-4.046,11.733-.345.345v.652l-2.233,6.477v-9.559l3.37-3.375v-13.8a1.13,1.13,0,0,0,.653-.826,1.131,1.131,0,0,0-.312-1.007,1.124,1.124,0,0,0-.8-.332,1.125,1.125,0,0,0-.433.086,1.127,1.127,0,0,0-.7,1.047,1.135,1.135,0,0,0,.988,1.12V235.5l-3.371,3.372v11.568l-3.119,9.044V244.37a1.132,1.132,0,0,0,.819-1.241,1.134,1.134,0,0,0-1.12-.979,1.134,1.134,0,0,0-1.12.979,1.133,1.133,0,0,0,.819,1.241v15.416Zm1.612-20.623a1.132,1.132,0,0,0-1.13,1.13,1.132,1.132,0,0,0,1.13,1.131,1.135,1.135,0,0,0,1.13-1.131A1.132,1.132,0,0,0-538.81,239.164Zm-3.285-2.273a1.134,1.134,0,0,0-1.132,1.129,1.132,1.132,0,0,0,1.13,1.13,1.132,1.132,0,0,0,1.13-1.13l-.007.013a1.135,1.135,0,0,0-.126-.519l4.459-4.459V223.7a1.125,1.125,0,0,0,.829-1.089,1.123,1.123,0,0,0-1.029-1.13c-.034,0-.069,0-.1,0a1.129,1.129,0,0,0-1.112.931,1.124,1.124,0,0,0,.817,1.291v9.107l-4.264,4.262a1.117,1.117,0,0,0-.592-.178Zm12.418-26.678a1.129,1.129,0,0,0-1.046.7,1.128,1.128,0,0,0,.247,1.233,1.116,1.116,0,0,0,.5.289v1.157a1.125,1.125,0,0,0-.817,1.292,1.13,1.13,0,0,0,1.112.931c.034,0,.069,0,.1,0a1.125,1.125,0,0,0,1.029-1.13h.007a1.138,1.138,0,0,0-.831-1.088v-1.157a1.132,1.132,0,0,0,.829-1.089A1.134,1.134,0,0,0-529.677,210.213Zm-52.648,49.574h-3.483v-.011l3.484-2.011v2.021Zm77.991,0h-1.739l.207-4.425-2.089-2.088.093-4.081-9.9-9.9a.973.973,0,0,0,.114-.458.964.964,0,0,0-.283-.685.963.963,0,0,0-.685-.283.965.965,0,0,0-.583.195v-4.815l2.256-2.256V220.3l4.619-4.621h7.992v5.766l-1.4,1.4h-6.059a.973.973,0,0,0-.926-.688.974.974,0,0,0-.142.01.974.974,0,0,0-.827.958.974.974,0,0,0,.827.958.972.972,0,0,0,.142.01.974.974,0,0,0,.926-.689h6.29l1.17-1.17v11.473l-.032.034h-7.506l-.305-.305a.971.971,0,0,0,.029-.857.972.972,0,0,0-.664-.544v-.995h5.739a.977.977,0,0,0,.929.689.981.981,0,0,0,.142-.01.975.975,0,0,0,.828-.959.976.976,0,0,0-.828-.96.98.98,0,0,0-.142-.01.977.977,0,0,0-.929.689h-6.3v1.595a.959.959,0,0,0-.342.221.971.971,0,0,0-.284.684.961.961,0,0,0,.284.684.946.946,0,0,0,.342.221v.668a.969.969,0,0,0-.687.927.965.965,0,0,0,.874.964c.031,0,.063,0,.094,0a.972.972,0,0,0,.951-.78.966.966,0,0,0-.671-1.115v-.63a.949.949,0,0,0,.239-.089l.469.469h7.772V243.5h-3.221v-3.514a.972.972,0,0,0,.689-.95.97.97,0,0,0-.732-.916.972.972,0,0,0-.236-.029.971.971,0,0,0-.843.491.972.972,0,0,0,.158,1.162.988.988,0,0,0,.4.243v4.072h3.779V247.6l0,12.18Zm-9.5-34.471a.966.966,0,0,0-.964.873.966.966,0,0,0,.776,1.045.974.974,0,0,0,.189.019.974.974,0,0,0,.926-.688h4.386a.962.962,0,0,0,.925.684.978.978,0,0,0,.143-.011.964.964,0,0,0,.827-.953.954.954,0,0,0-.279-.683.96.96,0,0,0-.685-.285.966.966,0,0,0-.928.689H-512.9a.965.965,0,0,0-.927-.688h0Zm1.579-8.184a.97.97,0,0,0-.144.011.972.972,0,0,0-.825.956.972.972,0,0,0,.825.956.966.966,0,0,0,.144.011.973.973,0,0,0,.923-.685h5.042a.964.964,0,0,0,.926.685.964.964,0,0,0,.965-.871.963.963,0,0,0-.775-1.045.972.972,0,0,0-.189-.019.975.975,0,0,0-.927.688h-5.042A.972.972,0,0,0-512.253,217.13Zm5.619,42.655h-3.488v-3.239l-1.866-1.866v-3.959l-7.08-7.08a.946.946,0,0,0,.164-.535.967.967,0,0,0-.284-.685l-.014-.014v-2.8a.954.954,0,0,0,.579.194,1,1,0,0,0,.46-.114l9.734,9.732-.093,4.078,2.078,2.083-.191,4.2Zm-4.047,0H-519.2v-9.92l3.314,3.316V255.8a.973.973,0,0,0-.693.953.975.975,0,0,0,.734.921.976.976,0,0,0,.237.029.976.976,0,0,0,.847-.494.975.975,0,0,0-.16-1.167.98.98,0,0,0-.4-.242v-2.854l-3.875-3.875V244.3l6.651,6.651v3.957l1.867,1.867v3.008Zm-75.673,0H-587.4l-.71-1.23v-.234l1.609-1.614.024.51-.774.777.881,1.527.012.263Zm38.384-.238h-2.168v-3.338h3.5v-1.32a.96.96,0,0,0,.38-.224v4.608a.97.97,0,0,0-.79-.412.967.967,0,0,0-.683.283.942.942,0,0,0-.243.4Zm-37.982-2.854v0l-.024-.507,2.985-2.994a.12.12,0,0,1-.048-.044c-.054-.066-.034-.174.058-.313a2.313,2.313,0,0,1,.463-.474,5.977,5.977,0,0,1,1.538-.888,2.729,2.729,0,0,1,.523-.15v.774a5.409,5.409,0,0,1-.8.564,5.039,5.039,0,0,1-1.165.515l-.032.008-3.5,3.509Zm-2.155-.167v-1.206a5.229,5.229,0,0,1,1.8-.75,1.156,1.156,0,0,1,.135-.009c.152,0,.251.041.287.117l-.679.679.011.243a7.17,7.17,0,0,1-1.556.925Zm0-2.861v-.306l3.589-2.072.007.3-3.595,2.075Zm8.216-1.856h0v-.381l5.852-1.559-.523.523-5.328,1.418Zm-8.216-.189h0v-.667a4.653,4.653,0,0,1,.659-.5,3.885,3.885,0,0,1,1.642-.656.558.558,0,0,1,.1.008l1.244-.718-.1.1.006.26-1.016.586a3.327,3.327,0,0,1-1.431,1.184,3.58,3.58,0,0,1-1.1.4Zm4.135-.342v0l-.007-.3,7.738-4.467-.726.725-7,4.044Zm10.732-.116,0,0-.472-.818.474-.473v1.295Zm-14.866-1.429v-.306l7.826-4.519-.725.725-7.1,4.1Zm4.753-.978v0l.719-.719,9.168-5.294a.966.966,0,0,0-.07.347Zm27.013-.063-1.7-4.943.045-.026a2.606,2.606,0,0,1,1.034-1.05l-3.6-6.238-1.5-4.354.209-.056,2.147,3.72.006.011,3.366,5.831v7.105Zm-31.766-.715v-.305l11.984-6.919-.722.722-11.26,6.5Zm13.028-1.832v0l.719-.719,1.121-.647v.306Zm-13.028-.267v-.311l1.3-.748,1.287-1.439h.544l-1.283,1.435-1.841,1.063Zm0-.617v-.985a2.092,2.092,0,0,1,.679-.159c.124,0,.2.03.239.09.108.187-.268.62-.916,1.053Zm8.932-.684v0l.719-.719,4.329-2.5a2.367,2.367,0,0,1,.887-.877v.973a2.025,2.025,0,0,1-.644.147.529.529,0,0,1-.114-.011Zm-5.314-1.747h-.544l.856-.957,8.521-4.919a1.087,1.087,0,0,1,.278-.386,4.939,4.939,0,0,1,.991-.73,4.86,4.86,0,0,1,1.152-.5v.85c-.122.1-.254.191-.4.282a4.133,4.133,0,0,1-1.782.728.539.539,0,0,1-.109-.01l-8.109,4.682-.859.96Zm-3.618-1.516V241l3.511-2.027,1.439-1.444h.519L-584.1,239l-4,2.311Zm13.089-.894v0l.738-.738a.978.978,0,0,0,.456.113.971.971,0,0,0,.584-.193v.181a3.746,3.746,0,0,1-1.551.585.53.53,0,0,1-.114-.011Zm-13.089-.606V239.5l1.318-.761a3.379,3.379,0,0,1,1.435-1.208h1.443a3.839,3.839,0,0,1-.926.769,4.051,4.051,0,0,1-1.709.682.541.541,0,0,1-.108-.01l-1.451.838Zm6.029-2.842h-.519l4.047-4.06-2.577-4.464,2.953-2.962-.929-1.608a.965.965,0,0,0,.35-.745.974.974,0,0,0-.827-.958.971.971,0,0,0-.142-.011.963.963,0,0,0-.332.059l-.327-.567-.025.006a1.47,1.47,0,0,1-.366.058c-.123,0-.206-.031-.239-.09-.047-.08,0-.208.125-.37l-5.847,1.557-.3-.3,6.19-1.649-1.15-1.993L-588.1,220.5v-.384l5.916-1.575-1.649-2.856h3.725l4.621,4.621v9.843l-2.5-4.33-2.219,2.227,2.577,4.463-1.73,1.736a.963.963,0,0,0-.534.19.964.964,0,0,0-.391.738l-1.791,1.8Zm-5.961,0h-.068V236.7l.823-.475a3.494,3.494,0,0,1,1.493-1.24,3.249,3.249,0,0,1,1.274-.429c.124,0,.2.03.239.09.115.2-.337.689-1.051,1.14a4.059,4.059,0,0,1-1.711.683.542.542,0,0,1-.108-.01l-.89.514Zm-.068-1.718v-.312l1.167-.674h.541l-1.707.985Zm14.872-1.2,0,0-1.105-1.914,1.107,1.107v.81Zm-11.532-.348H-586.2a4.633,4.633,0,0,1,1.45-1.072,3.127,3.127,0,0,1,1.2-.391c.151,0,.239.046.254.134.043.253-.509.781-1.285,1.229q-.091.052-.181.1Zm-3.339-.948v-.313l.559-.323-.239-.416c-.113.056-.221.105-.32.147v-2.408a3.1,3.1,0,0,1,1.183-.382c.124,0,.2.03.238.09.1.181-.236.584-.841,1l.161.278a3.926,3.926,0,0,1,.584-.213,1.458,1.458,0,0,1,.366-.058c.123,0,.205.031.239.09.062.106-.038.3-.274.54a4.109,4.109,0,0,1-.478.4l.384.666-1.561.9Zm68.909-.305V200.5l.623.083a.963.963,0,0,0,.782.659.976.976,0,0,0,.139.01.976.976,0,0,0,.928-.689h1.128l-1.034.275,1.538.205-.278-.481h1.242l.382.661,4.239.561,3.741-1,.934,1.617.506.067v.692h-12.3a.973.973,0,0,0-.929-.7.975.975,0,0,0-.14.01.974.974,0,0,0-.83.96.973.973,0,0,0,.831.958.978.978,0,0,0,.139.01.974.974,0,0,0,.929-.7h12.295v3.221h-5.554l-2.1,2.556h-5.231a.974.974,0,0,0-.927-.689.971.971,0,0,0-.189.019.965.965,0,0,0-.775,1.046.964.964,0,0,0,.963.873.959.959,0,0,0,.685-.284.954.954,0,0,0,.243-.4h5.5l2.1-2.558h5.287v1.21h-3.381a.963.963,0,0,0-.927-.688.976.976,0,0,0-.143.011.976.976,0,0,0-.826.958.974.974,0,0,0,.826.958.978.978,0,0,0,.143.01.963.963,0,0,0,.927-.687h3.379v5.863h-8.221l-4.944,4.947v10.683l-1.695,1.694Zm12.561-31.023-1.85.493,2.311.305-.462-.8Zm-66.613,31.023,0,0-1.695-1.694V220.082l-4.942-4.956h-4.272l-.421-.729-1.263.729h-2.264v-5.864h3.38a.959.959,0,0,0,.924.686.978.978,0,0,0,.143-.011.972.972,0,0,0,.825-.956.973.973,0,0,0-.825-.957.972.972,0,0,0-.142-.011.96.96,0,0,0-.924.687h-3.38v-1.21h5.287l2.1,2.556h5.5a.95.95,0,0,0,.242.4.95.95,0,0,0,.68.284.967.967,0,0,0,.967-.874.966.966,0,0,0-.776-1.045.976.976,0,0,0-.188-.018.975.975,0,0,0-.927.689h-5.229l-2.1-2.556h-5.553v-3.1h11.6a.971.971,0,0,0,.927.694.976.976,0,0,0,.14-.01.972.972,0,0,0,.828-.958.965.965,0,0,0-.83-.955.979.979,0,0,0-.139-.01.964.964,0,0,0-.927.69h-11.6v-2.606H-576.4a.972.972,0,0,0,.927.695.977.977,0,0,0,.138-.01.972.972,0,0,0,.828-.958.973.973,0,0,0-.829-.954.977.977,0,0,0-.139-.01.963.963,0,0,0-.927.689h-11.7V179.6h.829v4.925l3.966,3.973a1,1,0,0,0-.011.128.97.97,0,0,0,.968.968.97.97,0,0,0,.968-.968.685.685,0,0,0,0-.106l3.924-3.924v-5h8.892a1.135,1.135,0,0,0,.8.817v23.933l-2.876,2.864-2.6-7.54v32.78Zm23.494-1.318,0,0-1.626-1.3.313-.743-.93-1.611.714-.716,1.53,4.366Zm-13.207-2.181h0v-1.76l.68,1.175,2.571-.685v.4l-3.25.866Zm34.086-1.218h0v-9.514l3.388-3.389v-3.473l-2.5-2.5v-9.532l2.718.361v4.9l3.247,3.248Zm-34.086-.644v-.565l3.251-3.261v.565l-3.249,3.258Zm4.836-.714c-.145,0-.238-.035-.279-.1-.122-.212.3-.7,1.022-1.2l-.279-.483a3.4,3.4,0,0,1-1.272.393.523.523,0,0,1-.176-.025v-.45a4.344,4.344,0,0,1,1.23-1.028,4.565,4.565,0,0,1,1.9-.738.467.467,0,0,1,.2.038.16.16,0,0,1,.1.138c.017.243-.4.688-1.052,1.133l.279.483a4.945,4.945,0,0,1,.841-.325,1.723,1.723,0,0,1,.428-.068c.141,0,.238.035.278.1a.267.267,0,0,1-.027.26,4.045,4.045,0,0,1-1.453,1.228A4.287,4.287,0,0,1-558.126,226.374Zm-29.981-.466h0v-.384l6.768-1.8c.134-.1.282-.208.438-.309h.252a.965.965,0,0,0,.547.611,5.126,5.126,0,0,1-1.221.549,1.457,1.457,0,0,1-.367.059c-.123,0-.205-.031-.238-.091s-.016-.168.066-.293l-6.244,1.663Zm23.731-.515v0l-6.048-17.547,3.25-3.25V181.423l2.72,7.76v19.662l-2.5,2.5v3.465l3.388,3.388v5.183l-.812,2.011Zm5.266-2.168v-1.192a1.136,1.136,0,0,0,.157-.032l.39.675-.546.547Zm-29-.044h0v-.38l.442-.118.3.3-.741.2Zm28.4-.361,0,0-2.133-3.693-1.116,2.766v-3.921l-3.388-3.389v-2.973l2.5-2.5V205.9a1.13,1.13,0,0,0,.655.744,1.114,1.114,0,0,0,.431.086,1.131,1.131,0,0,0,.56-.149l2.652,2.653v4.207l-1.786,4.42,1.295,2.242a1.121,1.121,0,0,0-.337.805,1.133,1.133,0,0,0,.672,1.032v.875Zm20.611-2.232h0l1.939-5.45,1.871-1.872v-3.388l1.855-5.212,2.13-2.129v-3.65l.171.023,2.549-.822v.381l-1.714.553,1.714.228V205.3a1.137,1.137,0,0,0-.9-.815,1.134,1.134,0,0,0-.193-.017,1.133,1.133,0,0,0-.926.481,1.135,1.135,0,0,0-.057,1.21l-2.831,2.831v5.987Zm-15.622-1.383h0l-.45-.45a3.256,3.256,0,0,1,.69-.656l-3.329-5.767.661-.664v1.6l1.748,1.748,1.389,3.964a4.3,4.3,0,0,1-.555.194c-.053.014-.1.026-.153.036Zm-33.381-.728v-.548a.24.24,0,0,1,.192.08c.064.093,0,.258-.19.466Zm0-2.047v-.745h1.29l-1.289.744Zm51.414-2.619h0l.8-2.245v1.45Zm-19.176-.109-.684-.684v-.657l.55.952.136.387Zm-3.083-1.761h0v-2.95l-2.831-2.83a1.133,1.133,0,0,0-.051-1.214,1.131,1.131,0,0,0-.926-.483,1.132,1.132,0,0,0-.2.017,1.132,1.132,0,0,0-.9.821l0-14.4,2.72,7.762v3.872l2.088,2.091,1.522,4.34-.376.377Zm37.15-4.733h0l-2.864-2.864v-4.573l1.735.231,9.8-2.61h2.141l1.158,2.006,4.751-1.264a6.62,6.62,0,0,1,.748-.514v1.226a3.845,3.845,0,0,1-.936.309,1.261,1.261,0,0,1-.192.017c-.148,0-.246-.038-.283-.111s-.008-.21.1-.367l-4.948,1.318h-.14l-1.426-2.469-9.751,2.6,2.432.323-2.326,6.745Zm-11.169-3.864h0l1.056-2.969v1.916Zm-26.537-.031-1.029-1.027v-1.913l1.031,2.939Zm45.057-3.3h-.616l.534-.142.081.141Zm-12.349-1.727a.314.314,0,0,1-.272-.095.221.221,0,0,1,0-.211l-.917.3v-.381l1.316-.424a6.439,6.439,0,0,1,1.4-.953v1.246a5.367,5.367,0,0,1-1.1.454A1.717,1.717,0,0,1-526.8,198.283Zm2.133-.882v-1.16a3.757,3.757,0,0,1,.465-.148,1.594,1.594,0,0,1,.359-.05c.182,0,.286.057.3.165a.969.969,0,0,0-.627.829,5.983,5.983,0,0,1-.495.363Zm10.074-1.494c-.145,0-.238-.035-.278-.1-.134-.238.408-.82,1.261-1.353l-.548-.949h1.242l.259.448a2.885,2.885,0,0,1,1.012-.275c.145,0,.239.035.28.1.15.26-.514.926-1.48,1.484A4.294,4.294,0,0,1-514.588,195.907Zm1.36-2.956h-1.242l-2.382-4.127-6.039,1.608-1.77-3.066V180.41a1.141,1.141,0,0,0,.794-.814h1.962v5.868l1.058.818-3.485-.491,2.309,4,3.584-.954a.963.963,0,0,0,.548.17.974.974,0,0,0,.872-.548l1.037-.276,2.753,4.768Zm6.575-.251h0l-2.444-4.232,3.94-3.939V179.6h.829V188.6l-.778-.11a1.134,1.134,0,0,0-.311-.479,1.133,1.133,0,0,0-.766-.3,1.135,1.135,0,0,0-.726.263,1.136,1.136,0,0,0-.209.229l-.963-.136,2.3,3.992,1.448-.386v.4l-.849.226c-.03,0-.062-.006-.093-.007h-.028a.933.933,0,0,0-.562.189l-.793.211Zm-22.318-.586v0l.383-1.076v.84c-.125.083-.253.163-.381.238Zm.985-.7v-.866a1.279,1.279,0,0,1,.2-.018.365.365,0,0,1,.251.07.158.158,0,0,1,.049.123c0,.163-.179.408-.5.69Zm-53.644-3.44h0a.973.973,0,0,0-.691-.315h-.023a.971.971,0,0,0-.684.284l-.018.02-3.67-3.677V179.6h8.693v4.771l-3.606,3.611Zm72.238-.022h0l-.039-.068-.044-.006a.969.969,0,0,0-.62-.224h-.023a.961.961,0,0,0-.367.082l-.65-.091-3.279-3.281V179.6h8.685v4.694l-3.66,3.665Zm-2.669-.439h0l-6.467-.91-.62.166-.158-.275-.418-.059-1.625-1.256V179.6h6.373v5l2.917,2.917Zm-13.208-1.2,0,0-.413-.715-.925-.129,1.34-3.766v4.614Z" transform="translate(733.985 -179.59)"/><path class="b" d="M-523.6,240.646h-16.822l-2.569-7.629,1.768.573.485-.068.524.4,6.519,2.116-7.647-5.763-2.456.345-.2-.58,2.813-.395,9.239,6.963,7.583,2.453a.962.962,0,0,1,.116-.128l.642,1.715Zm-55.16,0h-.446l.8-1.063-.354,1.062Zm-1.6,0h-15.22l3.334-8.956.647.487,7.044-9.348a.963.963,0,0,1,.1-1.26.962.962,0,0,1,.682-.281.962.962,0,0,1,.58.193.972.972,0,0,1,.266,1.238.969.969,0,0,1-.848.5.962.962,0,0,1-.34-.062l-7.046,9.35,2.081,1.569,6.983-9.267a.974.974,0,0,1,.1-1.26.962.962,0,0,1,.682-.281.961.961,0,0,1,.579.193.971.971,0,0,1,.268,1.238.968.968,0,0,1-.848.5.962.962,0,0,1-.34-.062l-6.984,9.268,2.475,1.866,3.343-4.435,3.3-.138,3.147-4.176a.964.964,0,0,1,.136-1.293.968.968,0,0,1,.646-.247.964.964,0,0,1,.655.256.964.964,0,0,1,.119,1.3.948.948,0,0,1-.638.375.94.94,0,0,1-.138.01.93.93,0,0,1-.331-.061l-3.308,4.39-3.3.135-3.182,4.224.966.727,2.034-2.7a.972.972,0,0,1,.1-1.258.963.963,0,0,1,.679-.279.959.959,0,0,1,.581.195.971.971,0,0,1,.266,1.234.965.965,0,0,1-.849.5.964.964,0,0,1-.333-.059l-2.034,2.7,3.944,2.972Zm55.9-2.315,0,0-10.443-7.869a1.138,1.138,0,0,1-.689.234,1.128,1.128,0,0,1-.6-.175,1.134,1.134,0,0,1-.5-1.194,1.134,1.134,0,0,1,.948-.881,1.137,1.137,0,0,1,.157-.011,1.122,1.122,0,0,1,.888.432,1.13,1.13,0,0,1,.163,1.114l9.689,7.3.392,1.048ZM-528.63,227.2l0,0L-530,226.171l-.362-2.57a.941.941,0,0,1-.434-.182.963.963,0,0,1-.377-.64.96.96,0,0,1,.186-.717.962.962,0,0,1,.329-.278l.97,2.591.209,1.488.484.365.364.973Zm-45.494-.463h0l-8.9-6.707,7.587,2.461-.556-4.021-8.85-6.669.218-.584,9.19,6.925.639,4.55,6.56,2.129h-5.247l-.638,1.914Zm20.952-1.916h-1l-2.918-2.2a1.135,1.135,0,0,1-.549.142,1.125,1.125,0,0,1-.68-.227,1.122,1.122,0,0,1-.439-.745,1.122,1.122,0,0,1,.217-.838,1.121,1.121,0,0,1,.9-.45,1.12,1.12,0,0,1,.68.228,1.134,1.134,0,0,1,.3,1.462l3.483,2.624Zm-6.4,0h-1l-1.829-1.378-4.746.667-2.767-2.085-.491-3.5-13.232-9.971.219-.589,10.545,7.944a1.136,1.136,0,0,1-.115-1.21,1.127,1.127,0,0,1,1.008-.617h.04a1.136,1.136,0,0,1,1,.689l3.964-.556,4.782,3.6,7.623-1.071-5.461-1.741-2.448.344-2.587-1.949-5.452-1.737-2.927.41-3.091-2.33-6.742-2.149,14.127-37.95,19.1,14.392,4.013-.562-4.458-6.615,4.214,3.176,2.6,6.939-1.982-2.941-4.549.639L-568.5,170.9l4.468,6.772,15.585,11.742,3.5-.491,2.773,2.089.667,4.746,1.545,1.164.389,1.039-2.5-1.885-.667-4.746-2.37-1.786-3.5.491-2.556-1.926a1.124,1.124,0,0,1,.2.972,1.135,1.135,0,0,1-.644.753l.522,3.716,4.782,3.6,1.316,9.358,1.1,1.673.023.017a1.125,1.125,0,0,1,.422.657l3.949,5.991-.076-2.665a1.144,1.144,0,0,1-.756-1.3,1.14,1.14,0,0,1,1.117-.924l.065,0a1.143,1.143,0,0,1,1.073,1.049,1.144,1.144,0,0,1-.9,1.2l.1,3.582.563.852.772.582a1.134,1.134,0,0,1,.688-.235,1.12,1.12,0,0,1,.681.228,1.131,1.131,0,0,1,.425,1.142,1.13,1.13,0,0,1-.859.864l2.709,4.111-4.577-1.459a1.133,1.133,0,0,1-1.106,1.009h-.018a1.134,1.134,0,0,1-1.119-.974,1.107,1.107,0,0,1,.068-.571l-.36-.272-1.679-.535-3.175.817a1.139,1.139,0,0,1-1.027,1.205c-.035,0-.07,0-.1,0a1.133,1.133,0,0,1-1.125-1,1.139,1.139,0,0,1,.973-1.25,1.123,1.123,0,0,1,.161-.012,1.12,1.12,0,0,1,.924.487l2.3-.591-9.491-3.027-9.112,1.28-4.78-3.6-3.716.521a1.134,1.134,0,0,1-.544.83,1.13,1.13,0,0,1-.571.155,1.123,1.123,0,0,1-.419-.081l2.561,1.93.491,3.5,2.374,1.789,4.746-.667,2.646,1.994Zm-3.759-10.863h0l1.018.766.962-.135Zm.29-34.793h0l3.15,4.773-9.321,28.067h19.2l-8.959-26.68.4.61,3.079,2.321.419,2.982,3.046,4.618,2.706,2.039.37,2.621,3.188,4.832-1.1-7.859-4.782-3.6-.557-3.964a1.137,1.137,0,0,1-.932-.774,1.134,1.134,0,0,1,.3-1.173,1.126,1.126,0,0,1,.773-.306,1.122,1.122,0,0,1,.417.08ZM-574.809,210.3h0l1.526,1.149,1.445-.2Zm23.766-12.944h0l1.315,1.99-.157-1.119Zm-6.542-9.914h0l1.738,2.632-.208-1.48Zm23.934,31.92a1.12,1.12,0,0,1-.68-.228,1.133,1.133,0,0,1-.22-1.583,1.121,1.121,0,0,1,.5-.366l-.837-5.971-7.273-5.48a1.122,1.122,0,0,1-.693.237,1.135,1.135,0,0,1-.83-.362,1.124,1.124,0,0,1-.009-1.527,1.134,1.134,0,0,1,.839-.372,1.122,1.122,0,0,1,.682.229,1.128,1.128,0,0,1,.372,1.318l6.905,5.2.807,2.156.634,4.513a1.133,1.133,0,0,1,.49.211l-.005-.013a1.123,1.123,0,0,1,.439.745,1.122,1.122,0,0,1-.217.838A1.121,1.121,0,0,1-533.651,219.364Zm-3.407-14.676,0,0-4.081-3.075a1.126,1.126,0,0,1-.811.341,1.123,1.123,0,0,1-.678-.226,1.128,1.128,0,0,1-.417-1.188,1.126,1.126,0,0,1,.94-.837,1.132,1.132,0,0,1,.158-.011,1.133,1.133,0,0,1,.834.368,1.132,1.132,0,0,1,.267,1.019l3.4,2.56.393,1.049Zm-7.759-9.282a1.118,1.118,0,0,1-.509-.122,1.125,1.125,0,0,1-.54-1.429l-.924-.7a1.124,1.124,0,0,1-.53.223,1.136,1.136,0,0,1-.158.011,1.137,1.137,0,0,1-.975-.557,1.127,1.127,0,0,1,.072-1.255,1.124,1.124,0,0,1,.9-.449,1.123,1.123,0,0,1,.679.227,1.134,1.134,0,0,1,.371,1.318l.925.7a1.137,1.137,0,0,1,.69-.235,1.123,1.123,0,0,1,.679.226l0,.006a1.138,1.138,0,0,1,.283,1.5A1.123,1.123,0,0,1-544.818,195.406Zm-10.131-15.912a.958.958,0,0,1-.581-.194.973.973,0,0,1-.266-1.237.967.967,0,0,1,.849-.5.958.958,0,0,1,.337.061l4.957-6.579.229.612-4.746,6.3a.971.971,0,0,1-.1,1.261A.962.962,0,0,1-554.949,179.493Zm8.184-.737h0a.968.968,0,0,1-.317-.158.972.972,0,0,1-.267-1.24c.012-.022.025-.044.039-.065l.547,1.461Zm-2.315-1.788a.961.961,0,0,1-.579-.192.974.974,0,0,1-.267-1.241.967.967,0,0,1,.849-.5.963.963,0,0,1,.341.062l.4-.533.229.61-.192.255a.965.965,0,0,1-.1,1.261A.964.964,0,0,1-549.08,176.969Zm-7.419-1.878a.96.96,0,0,1-.582-.195.974.974,0,0,1-.266-1.239.97.97,0,0,1,.85-.5.973.973,0,0,1,.339.062l4.891-6.49.228.61-4.681,6.211a.972.972,0,0,1-.1,1.264A.961.961,0,0,1-556.5,175.091Zm-6.973-4.611h0l-4.678-3.524,1.151-3.092h1.166l-1.991,2.642,4.462,3.362,3.4-.93a.955.955,0,0,1,.187-.7.96.96,0,0,1,.774-.385.961.961,0,0,1,.583.2.96.96,0,0,1,.376.638.961.961,0,0,1-.186.717.957.957,0,0,1-.638.377.966.966,0,0,1-.132.009.973.973,0,0,1-.584-.2.912.912,0,0,1-.149-.139l-3.741,1.023Zm3.478-6.052h0l-.747-.563h4.757l-4.009.563Zm6.2-.487a.963.963,0,0,1-.377-.077h.754l-.011,0A.961.961,0,0,1-553.8,163.94Z" transform="translate(595.581 -161.299)"/><path class="b" d="M-572.474,231.063h0l-.485,0-.689-.918.019-2.563-5.22-8.9.094-12.151a1.254,1.254,0,0,1-.546-1.06.538.538,0,0,1,.543-.544.7.7,0,0,1,.127.012l-2.762-3.945-2.606-.926-.8-1.136v-.675l.978,1.4,1.961.7-2.939-4.2v-8.765l5.891,5.16-5.48-7.826-.41-.146v-.51l.63.224,6.606,9.435,8.584,7.518v18.022l-2.886-4.651-.032,4.063,2.919,5.222v.825l-3.379-6.007.036-4.757-2.734-3.905-.062,8.162,5.1,8.84-.017,2.292,1.06,1.514v.2h-.352l-1.17-1.671.017-2.291-5.1-8.842.068-8.691a1.28,1.28,0,0,1-.634-1.052V208.5l-1.6-2.29-.006-.006a.532.532,0,0,1-.541.49h-.02l-.09,11.945,5.22,8.9-.019,2.557.727.968Zm-1.686,0H-584.8V214.582l.232.332,2.5-1.751c-.184-.431-.085-.859.23-1a.558.558,0,0,1,.224-.045,1.053,1.053,0,0,1,.81.491.929.929,0,0,1,.067,1.124.517.517,0,0,1-.385.158.957.957,0,0,1-.629-.282l-2.5,1.751,10.089,15.7ZM-584.8,208.609v-.686l.737-.516.013-1.6a1.227,1.227,0,0,1-.547-1.124.528.528,0,0,1,.537-.485.752.752,0,0,1,.251.046,1.267,1.267,0,0,1,.779,1,.7.7,0,0,1-.141.559.512.512,0,0,1-.4.171h-.024l-.014,1.8-1.194.836Zm15.82-9.984h0l-3.1-1.1-7.916-11.307h-.039a1.235,1.235,0,0,1-.946-.572,1.012,1.012,0,0,1,.011-1.388.616.616,0,0,1,.361-.109,1.232,1.232,0,0,1,.947.574,1.072,1.072,0,0,1,.067,1.32l7.723,11.03,2.891,1.028v.521Zm-2.415-8.213a.9.9,0,0,1-.34-.071,1.487,1.487,0,0,1-.873-1.32.64.64,0,0,1,.638-.682.883.883,0,0,1,.3.056,1.447,1.447,0,0,1,.82.832l1.871.441v.526l-1.779-.419A.63.63,0,0,1-571.392,190.411Zm2.415-.782h0l-7.252-6.3-7.526-2.676-1.04-1.486v-.752l1.253,1.789,6.3,2.237-4.208-3.658-2.021-.718-1.319-1.884v-9.082h-10.1l-5.312-4.618,3.234,4.618h-.524l-4.046-5.779-6.036-5.246,7.72,11.025h-.519L-608,156.217V154.28h30.732l.489,1.287,2.212,3.159-.02,2.613,1.908,5.026,1.943,2.776-.016,2.3,1.776,4.676v13.515ZM-584,176.571h0l.732,1.044.794.282Zm11.938-8.576h0l.825,2.167.007-.981Zm-4.1-10.793h0l1.089,2.866.01-1.3Zm7.183,12.217,0,0-3.158-4.51.027-3.473a1.533,1.533,0,0,1-.661-1.015.728.728,0,0,1,.386-.837.656.656,0,0,1,.239-.043,1.128,1.128,0,0,1,.751.345l-3.923-5.6h.522l5.791,8.271,2.887,1.026,1.992,2.844-.005.674h-.5l0-.644-1.7-2.432-2.887-1.026-1.835-2.621a1.081,1.081,0,0,1,.043.877.6.6,0,0,1-.564.355h-.048l-.025,3.257,2.664,3.8v.755ZM-556,167.1h-.457l.042-5.711,4.792-3.356-2.625-3.749h8.794v12.558l-2.087-2.981-.011,1.436-2.574,1.8h-.976l3.093-2.166.013-1.72-3.307-4.723-4.658,3.262-.04,5.348Zm-2.185,0h-4.89l-3.034-7.814-3.756-1.335-2.567-3.667h.527l2.25,3.213,3.313,1.179-1.7-4.392h.888l8.972,12.814Zm-8.307,0h-1.058l-.563-.8a.671.671,0,0,1-.164.02.869.869,0,0,1-.291-.053,1.474,1.474,0,0,1-.851-.91.851.851,0,0,1,.209-1,.616.616,0,0,1,.36-.108,1.233,1.233,0,0,1,.947.573,1.144,1.144,0,0,1,.142,1.231l.663.948a.689.689,0,0,1,.164-.019.961.961,0,0,1,.442.119Zm12.2-2.513a1.052,1.052,0,0,1-.809-.49.929.929,0,0,1-.068-1.12.515.515,0,0,1,.386-.159.953.953,0,0,1,.623.276l2.939-2.057a.928.928,0,0,1-.033-.722.507.507,0,0,1,.3-.283.571.571,0,0,1,.189-.031,1.1,1.1,0,0,1,.862.571.83.83,0,0,1-.061,1.11.557.557,0,0,1-.311.091.953.953,0,0,1-.622-.277l-2.939,2.058a.723.723,0,0,1-.234.988A.557.557,0,0,1-554.292,164.582Zm-8.208-4.418a1.022,1.022,0,0,1-.753-.415.973.973,0,0,1-.148-1.173.511.511,0,0,1,.409-.185.956.956,0,0,1,.625.279l3.049-2.135-.186-2.255h.447l.215,2.6-3.2,2.244a1.066,1.066,0,0,1,.091.43.6.6,0,0,1-.235.511A.529.529,0,0,1-562.5,160.163Zm5.085-4.523a1.054,1.054,0,0,1-.809-.491,1.1,1.1,0,0,1-.2-.869h1.934l-.466.326c.184.437.085.854-.235.991A.558.558,0,0,1-557.415,155.64Zm-8.376-.9a1.046,1.046,0,0,1-.787-.46h1.32a.542.542,0,0,1-.309.415A.558.558,0,0,1-565.791,154.74Z" transform="translate(678.667 -153.715)"/></g></svg>