<svg xmlns="http://www.w3.org/2000/svg" width="117.54" height="117.54" viewBox="0 0 117.54 117.54"><rect width="4.053" height="4.053" fill="#fff"/><rect width="4.053" height="4.053" transform="translate(4.053)" fill="#fff"/><rect width="4.053" height="4.053" transform="translate(8.106)" fill="#fff"/><rect width="4.053" height="4.053" transform="translate(12.159)" fill="#fff"/><rect width="4.053" height="4.053" transform="translate(16.213)" fill="#fff"/><rect width="4.053" height="4.053" transform="translate(20.266)" fill="#fff"/><rect width="4.053" height="4.053" transform="translate(24.319)" fill="#fff"/><rect width="4.053" height="4.053" transform="translate(40.531)" fill="#fff"/><rect width="4.053" height="4.053" transform="translate(48.637)" fill="#fff"/><rect width="4.053" height="4.053" transform="translate(52.691)" fill="#fff"/><rect width="4.053" height="4.053" transform="translate(56.744)" fill="#fff"/><rect width="4.053" height="4.053" transform="translate(60.797)" fill="#fff"/><rect width="4.053" height="4.053" transform="translate(72.956)" fill="#fff"/><rect width="4.053" height="4.053" transform="translate(77.009)" fill="#fff"/><rect width="4.053" height="4.053" transform="translate(89.169)" fill="#fff"/><rect width="4.053" height="4.053" transform="translate(93.222)" fill="#fff"/><rect width="4.053" height="4.053" transform="translate(97.275)" fill="#fff"/><rect width="4.053" height="4.053" transform="translate(101.328)" fill="#fff"/><rect width="4.053" height="4.053" transform="translate(105.381)" fill="#fff"/><rect width="4.053" height="4.053" transform="translate(109.434)" fill="#fff"/><rect width="4.053" height="4.053" transform="translate(113.488)" fill="#fff"/><g transform="translate(0 4.053)"><rect width="4.053" height="4.053" fill="#fff"/><rect width="4.053" height="4.053" transform="translate(24.319)" fill="#fff"/><rect width="4.053" height="4.053" transform="translate(32.425)" fill="#fff"/><rect width="4.053" height="4.053" transform="translate(40.531)" fill="#fff"/><rect width="4.053" height="4.053" transform="translate(52.691)" fill="#fff"/><rect width="4.053" height="4.053" transform="translate(56.744)" fill="#fff"/><rect width="4.053" height="4.053" transform="translate(60.797)" fill="#fff"/><rect width="4.053" height="4.053" transform="translate(64.85)" fill="#fff"/><rect width="4.053" height="4.053" transform="translate(72.956)" fill="#fff"/><rect width="4.053" height="4.053" transform="translate(89.169)" fill="#fff"/><rect width="4.053" height="4.053" transform="translate(113.488)" fill="#fff"/></g><g transform="translate(0 8.106)"><rect width="4.053" height="4.053" fill="#fff"/><rect width="4.053" height="4.053" transform="translate(8.106)" fill="#fff"/><rect width="4.053" height="4.053" transform="translate(12.159)" fill="#fff"/><rect width="4.053" height="4.053" transform="translate(16.213)" fill="#fff"/><rect width="4.053" height="4.053" transform="translate(24.319)" fill="#fff"/><rect width="4.053" height="4.053" transform="translate(48.637)" fill="#fff"/><rect width="4.053" height="4.053" transform="translate(52.691)" fill="#fff"/><rect width="4.053" height="4.053" transform="translate(60.797)" fill="#fff"/><rect width="4.053" height="4.053" transform="translate(72.956)" fill="#fff"/><rect width="4.053" height="4.053" transform="translate(77.009)" fill="#fff"/><rect width="4.053" height="4.053" transform="translate(81.062)" fill="#fff"/><rect width="4.053" height="4.053" transform="translate(89.169)" fill="#fff"/><rect width="4.053" height="4.053" transform="translate(97.275)" fill="#fff"/><rect width="4.053" height="4.053" transform="translate(101.328)" fill="#fff"/><rect width="4.053" height="4.053" transform="translate(105.381)" fill="#fff"/><rect width="4.053" height="4.053" transform="translate(113.488)" fill="#fff"/></g><g transform="translate(0 12.159)"><rect width="4.053" height="4.053" fill="#fff"/><rect width="4.053" height="4.053" transform="translate(8.106)" fill="#fff"/><rect width="4.053" height="4.053" transform="translate(12.159)" fill="#fff"/><rect width="4.053" height="4.053" transform="translate(16.213)" fill="#fff"/><rect width="4.053" height="4.053" transform="translate(24.319)" fill="#fff"/><rect width="4.053" height="4.053" transform="translate(32.425)" fill="#fff"/><rect width="4.053" height="4.053" transform="translate(36.478)" fill="#fff"/><rect width="4.053" height="4.053" transform="translate(40.531)" fill="#fff"/><rect width="4.053" height="4.053" transform="translate(48.637)" fill="#fff"/><rect width="4.053" height="4.053" transform="translate(56.744)" fill="#fff"/><rect width="4.053" height="4.053" transform="translate(60.797)" fill="#fff"/><rect width="4.053" height="4.053" transform="translate(72.956)" fill="#fff"/><rect width="4.053" height="4.053" transform="translate(77.009)" fill="#fff"/><rect width="4.053" height="4.053" transform="translate(89.169)" fill="#fff"/><rect width="4.053" height="4.053" transform="translate(97.275)" fill="#fff"/><rect width="4.053" height="4.053" transform="translate(101.328)" fill="#fff"/><rect width="4.053" height="4.053" transform="translate(105.381)" fill="#fff"/><rect width="4.053" height="4.053" transform="translate(113.488)" fill="#fff"/></g><g transform="translate(0 16.213)"><rect width="4.053" height="4.053" fill="#fff"/><rect width="4.053" height="4.053" transform="translate(8.106)" fill="#fff"/><rect width="4.053" height="4.053" transform="translate(12.159)" fill="#fff"/><rect width="4.053" height="4.053" transform="translate(16.213)" fill="#fff"/><rect width="4.053" height="4.053" transform="translate(24.319)" fill="#fff"/><rect width="4.053" height="4.053" transform="translate(36.478)" fill="#fff"/><rect width="4.053" height="4.053" transform="translate(60.797)" fill="#fff"/><rect width="4.053" height="4.053" transform="translate(64.85)" fill="#fff"/><rect width="4.053" height="4.053" transform="translate(68.903)" fill="#fff"/><rect width="4.053" height="4.053" transform="translate(72.956)" fill="#fff"/><rect width="4.053" height="4.053" transform="translate(77.009)" fill="#fff"/><rect width="4.053" height="4.053" transform="translate(81.062)" fill="#fff"/><rect width="4.053" height="4.053" transform="translate(89.169)" fill="#fff"/><rect width="4.053" height="4.053" transform="translate(97.275)" fill="#fff"/><rect width="4.053" height="4.053" transform="translate(101.328)" fill="#fff"/><rect width="4.053" height="4.053" transform="translate(105.381)" fill="#fff"/><rect width="4.053" height="4.053" transform="translate(113.488)" fill="#fff"/></g><g transform="translate(0 20.266)"><rect width="4.053" height="4.053" fill="#fff"/><rect width="4.053" height="4.053" transform="translate(24.319)" fill="#fff"/><rect width="4.053" height="4.053" transform="translate(32.425)" fill="#fff"/><rect width="4.053" height="4.053" transform="translate(36.478)" fill="#fff"/><rect width="4.053" height="4.053" transform="translate(44.584)" fill="#fff"/><rect width="4.053" height="4.053" transform="translate(48.637)" fill="#fff"/><rect width="4.053" height="4.053" transform="translate(68.903)" fill="#fff"/><rect width="4.053" height="4.053" transform="translate(72.956)" fill="#fff"/><rect width="4.053" height="4.053" transform="translate(81.062)" fill="#fff"/><rect width="4.053" height="4.053" transform="translate(89.169)" fill="#fff"/><rect width="4.053" height="4.053" transform="translate(113.488)" fill="#fff"/></g><g transform="translate(0 24.319)"><rect width="4.053" height="4.053" fill="#fff"/><rect width="4.053" height="4.053" transform="translate(4.053)" fill="#fff"/><rect width="4.053" height="4.053" transform="translate(8.106)" fill="#fff"/><rect width="4.053" height="4.053" transform="translate(12.159)" fill="#fff"/><rect width="4.053" height="4.053" transform="translate(16.213)" fill="#fff"/><rect width="4.053" height="4.053" transform="translate(20.266)" fill="#fff"/><rect width="4.053" height="4.053" transform="translate(24.319)" fill="#fff"/><rect width="4.053" height="4.053" transform="translate(32.425)" fill="#fff"/><rect width="4.053" height="4.053" transform="translate(40.531)" fill="#fff"/><rect width="4.053" height="4.053" transform="translate(48.637)" fill="#fff"/><rect width="4.053" height="4.053" transform="translate(56.744)" fill="#fff"/><rect width="4.053" height="4.053" transform="translate(64.85)" fill="#fff"/><rect width="4.053" height="4.053" transform="translate(72.956)" fill="#fff"/><rect width="4.053" height="4.053" transform="translate(81.062)" fill="#fff"/><rect width="4.053" height="4.053" transform="translate(89.169)" fill="#fff"/><rect width="4.053" height="4.053" transform="translate(93.222)" fill="#fff"/><rect width="4.053" height="4.053" transform="translate(97.275)" fill="#fff"/><rect width="4.053" height="4.053" transform="translate(101.328)" fill="#fff"/><rect width="4.053" height="4.053" transform="translate(105.381)" fill="#fff"/><rect width="4.053" height="4.053" transform="translate(109.434)" fill="#fff"/><rect width="4.053" height="4.053" transform="translate(113.488)" fill="#fff"/></g><g transform="translate(36.478 28.372)"><rect width="4.053" height="4.053" fill="#fff"/><rect width="4.053" height="4.053" transform="translate(4.053)" fill="#fff"/><rect width="4.053" height="4.053" transform="translate(8.106)" fill="#fff"/><rect width="4.053" height="4.053" transform="translate(20.266)" fill="#fff"/><rect width="4.053" height="4.053" transform="translate(28.372)" fill="#fff"/><rect width="4.053" height="4.053" transform="translate(36.478)" fill="#fff"/></g><g transform="translate(0 32.425)"><rect width="4.053" height="4.053" fill="#fff"/><rect width="4.053" height="4.053" transform="translate(4.053)" fill="#fff"/><rect width="4.053" height="4.053" transform="translate(8.106)" fill="#fff"/><rect width="4.053" height="4.053" transform="translate(12.159)" fill="#fff"/><rect width="4.053" height="4.053" transform="translate(16.213)" fill="#fff"/><rect width="4.053" height="4.053" transform="translate(24.319)" fill="#fff"/><rect width="4.053" height="4.053" transform="translate(28.372)" fill="#fff"/><rect width="4.053" height="4.053" transform="translate(32.425)" fill="#fff"/><rect width="4.053" height="4.053" transform="translate(36.478)" fill="#fff"/><rect width="4.053" height="4.053" transform="translate(44.584)" fill="#fff"/><rect width="4.053" height="4.053" transform="translate(85.115)" fill="#fff"/><rect width="4.053" height="4.053" transform="translate(93.222)" fill="#fff"/><rect width="4.053" height="4.053" transform="translate(101.328)" fill="#fff"/><rect width="4.053" height="4.053" transform="translate(109.434)" fill="#fff"/></g><g transform="translate(12.159 36.478)"><rect width="4.053" height="4.053" fill="#fff"/><rect width="4.053" height="4.053" transform="translate(4.053)" fill="#fff"/><rect width="4.053" height="4.053" transform="translate(8.106)" fill="#fff"/><rect width="4.053" height="4.053" transform="translate(20.266)" fill="#fff"/><rect width="4.053" height="4.053" transform="translate(28.372)" fill="#fff"/><rect width="4.053" height="4.053" transform="translate(36.478)" fill="#fff"/><rect width="4.053" height="4.053" transform="translate(40.531)" fill="#fff"/><rect width="4.053" height="4.053" transform="translate(44.584)" fill="#fff"/><rect width="4.053" height="4.053" transform="translate(48.638)" fill="#fff"/><rect width="4.053" height="4.053" transform="translate(56.744)" fill="#fff"/><rect width="4.053" height="4.053" transform="translate(60.797)" fill="#fff"/><rect width="4.053" height="4.053" transform="translate(64.85)" fill="#fff"/><rect width="4.053" height="4.053" transform="translate(68.903)" fill="#fff"/><rect width="4.053" height="4.053" transform="translate(72.956)" fill="#fff"/><rect width="4.053" height="4.053" transform="translate(77.009)" fill="#fff"/><rect width="4.053" height="4.053" transform="translate(81.062)" fill="#fff"/><rect width="4.053" height="4.053" transform="translate(85.116)" fill="#fff"/><rect width="4.053" height="4.053" transform="translate(97.275)" fill="#fff"/></g><g transform="translate(4.053 40.531)"><rect width="4.053" height="4.053" fill="#fff"/><rect width="4.053" height="4.053" transform="translate(8.106)" fill="#fff"/><rect width="4.053" height="4.053" transform="translate(20.266)" fill="#fff"/><rect width="4.053" height="4.053" transform="translate(36.478)" fill="#fff"/><rect width="4.053" height="4.053" transform="translate(48.638)" fill="#fff"/><rect width="4.053" height="4.053" transform="translate(52.691)" fill="#fff"/><rect width="4.053" height="4.053" transform="translate(56.744)" fill="#fff"/><rect width="4.053" height="4.053" transform="translate(60.797)" fill="#fff"/><rect width="4.053" height="4.053" transform="translate(64.85)" fill="#fff"/><rect width="4.053" height="4.053" transform="translate(68.903)" fill="#fff"/><rect width="4.053" height="4.053" transform="translate(81.062)" fill="#fff"/><rect width="4.053" height="4.053" transform="translate(89.169)" fill="#fff"/><rect width="4.053" height="4.053" transform="translate(93.222)" fill="#fff"/><rect width="4.053" height="4.053" transform="translate(97.275)" fill="#fff"/></g><g transform="translate(4.053 44.584)"><rect width="4.053" height="4.053" fill="#fff"/><rect width="4.053" height="4.053" transform="translate(8.106)" fill="#fff"/><rect width="4.053" height="4.053" transform="translate(12.16)" fill="#fff"/><rect width="4.053" height="4.053" transform="translate(16.213)" fill="#fff"/><rect width="4.053" height="4.053" transform="translate(44.584)" fill="#fff"/><rect width="4.053" height="4.053" transform="translate(48.638)" fill="#fff"/><rect width="4.053" height="4.053" transform="translate(56.744)" fill="#fff"/><rect width="4.053" height="4.053" transform="translate(60.797)" fill="#fff"/><rect width="4.053" height="4.053" transform="translate(77.009)" fill="#fff"/><rect width="4.053" height="4.053" transform="translate(89.169)" fill="#fff"/><rect width="4.053" height="4.053" transform="translate(97.275)" fill="#fff"/><rect width="4.053" height="4.053" transform="translate(105.381)" fill="#fff"/></g><g transform="translate(8.106 48.637)"><rect width="4.053" height="4.053" fill="#fff"/><rect width="4.053" height="4.053" transform="translate(8.106)" fill="#fff"/><rect width="4.053" height="4.053" transform="translate(16.213)" fill="#fff"/><rect width="4.053" height="4.053" transform="translate(20.266)" fill="#fff"/><rect width="4.053" height="4.053" transform="translate(28.372)" fill="#fff"/><rect width="4.053" height="4.053" transform="translate(32.425)" fill="#fff"/><rect width="4.053" height="4.053" transform="translate(40.531)" fill="#fff"/><rect width="4.053" height="4.053" transform="translate(48.637)" fill="#fff"/><rect width="4.053" height="4.053" transform="translate(60.797)" fill="#fff"/><rect width="4.053" height="4.053" transform="translate(97.275)" fill="#fff"/><rect width="4.053" height="4.053" transform="translate(101.328)" fill="#fff"/></g><g transform="translate(0 52.691)"><rect width="4.053" height="4.053" fill="#fff"/><rect width="4.053" height="4.053" transform="translate(4.053)" fill="#fff"/><rect width="4.053" height="4.053" transform="translate(8.106)" fill="#fff"/><rect width="4.053" height="4.053" transform="translate(20.266)" fill="#fff"/><rect width="4.053" height="4.053" transform="translate(32.425)" fill="#fff"/><rect width="4.053" height="4.053" transform="translate(36.478)" fill="#fff"/><rect width="4.053" height="4.053" transform="translate(64.85)" fill="#fff"/><rect width="4.053" height="4.053" transform="translate(68.903)" fill="#fff"/><rect width="4.053" height="4.053" transform="translate(72.956)" fill="#fff"/><rect width="4.053" height="4.053" transform="translate(77.009)" fill="#fff"/><rect width="4.053" height="4.053" transform="translate(81.062)" fill="#fff"/><rect width="4.053" height="4.053" transform="translate(85.115)" fill="#fff"/><rect width="4.053" height="4.053" transform="translate(89.169)" fill="#fff"/><rect width="4.053" height="4.053" transform="translate(93.222)" fill="#fff"/><rect width="4.053" height="4.053" transform="translate(97.275)" fill="#fff"/><rect width="4.053" height="4.053" transform="translate(109.434)" fill="#fff"/><rect width="4.053" height="4.053" transform="translate(113.488)" fill="#fff"/></g><g transform="translate(4.053 56.744)"><rect width="4.053" height="4.053" fill="#fff"/><rect width="4.053" height="4.053" transform="translate(4.053)" fill="#fff"/><rect width="4.053" height="4.053" transform="translate(20.266)" fill="#fff"/><rect width="4.053" height="4.053" transform="translate(28.372)" fill="#fff"/><rect width="4.053" height="4.053" transform="translate(40.531)" fill="#fff"/><rect width="4.053" height="4.053" transform="translate(44.584)" fill="#fff"/><rect width="4.053" height="4.053" transform="translate(56.744)" fill="#fff"/><rect width="4.053" height="4.053" transform="translate(60.797)" fill="#fff"/><rect width="4.053" height="4.053" transform="translate(64.85)" fill="#fff"/><rect width="4.053" height="4.053" transform="translate(77.009)" fill="#fff"/><rect width="4.053" height="4.053" transform="translate(85.116)" fill="#fff"/><rect width="4.053" height="4.053" transform="translate(93.222)" fill="#fff"/><rect width="4.053" height="4.053" transform="translate(101.328)" fill="#fff"/><rect width="4.053" height="4.053" transform="translate(105.381)" fill="#fff"/></g><g transform="translate(0 60.797)"><rect width="4.053" height="4.053" fill="#fff"/><rect width="4.053" height="4.053" transform="translate(4.053)" fill="#fff"/><rect width="4.053" height="4.053" transform="translate(16.213)" fill="#fff"/><rect width="4.053" height="4.053" transform="translate(32.425)" fill="#fff"/><rect width="4.053" height="4.053" transform="translate(40.531)" fill="#fff"/><rect width="4.053" height="4.053" transform="translate(44.584)" fill="#fff"/><rect width="4.053" height="4.053" transform="translate(56.744)" fill="#fff"/><rect width="4.053" height="4.053" transform="translate(60.797)" fill="#fff"/><rect width="4.053" height="4.053" transform="translate(85.115)" fill="#fff"/><rect width="4.053" height="4.053" transform="translate(89.169)" fill="#fff"/><rect width="4.053" height="4.053" transform="translate(101.328)" fill="#fff"/></g><g transform="translate(16.213 64.85)"><rect width="4.053" height="4.053" fill="#fff"/><rect width="4.053" height="4.053" transform="translate(4.053)" fill="#fff"/><rect width="4.053" height="4.053" transform="translate(8.106)" fill="#fff"/><rect width="4.053" height="4.053" transform="translate(24.318)" fill="#fff"/><rect width="4.053" height="4.053" transform="translate(28.372)" fill="#fff"/><rect width="4.053" height="4.053" transform="translate(44.584)" fill="#fff"/><rect width="4.053" height="4.053" transform="translate(52.691)" fill="#fff"/><rect width="4.053" height="4.053" transform="translate(68.903)" fill="#fff"/><rect width="4.053" height="4.053" transform="translate(89.169)" fill="#fff"/><rect width="4.053" height="4.053" transform="translate(93.222)" fill="#fff"/><rect width="4.053" height="4.053" transform="translate(97.275)" fill="#fff"/></g><g transform="translate(0 68.903)"><rect width="4.053" height="4.053" fill="#fff"/><rect width="4.053" height="4.053" transform="translate(4.053)" fill="#fff"/><rect width="4.053" height="4.053" transform="translate(12.159)" fill="#fff"/><rect width="4.053" height="4.053" transform="translate(28.372)" fill="#fff"/><rect width="4.053" height="4.053" transform="translate(32.425)" fill="#fff"/><rect width="4.053" height="4.053" transform="translate(36.478)" fill="#fff"/><rect width="4.053" height="4.053" transform="translate(48.637)" fill="#fff"/><rect width="4.053" height="4.053" transform="translate(52.691)" fill="#fff"/><rect width="4.053" height="4.053" transform="translate(56.744)" fill="#fff"/><rect width="4.053" height="4.053" transform="translate(64.85)" fill="#fff"/><rect width="4.053" height="4.053" transform="translate(72.956)" fill="#fff"/><rect width="4.053" height="4.053" transform="translate(77.009)" fill="#fff"/><rect width="4.053" height="4.053" transform="translate(81.062)" fill="#fff"/><rect width="4.053" height="4.053" transform="translate(85.115)" fill="#fff"/><rect width="4.053" height="4.053" transform="translate(89.169)" fill="#fff"/><rect width="4.053" height="4.053" transform="translate(93.222)" fill="#fff"/><rect width="4.053" height="4.053" transform="translate(97.275)" fill="#fff"/><rect width="4.053" height="4.053" transform="translate(101.328)" fill="#fff"/><rect width="4.053" height="4.053" transform="translate(113.488)" fill="#fff"/></g><g transform="translate(0 72.956)"><rect width="4.053" height="4.053" fill="#fff"/><rect width="4.053" height="4.053" transform="translate(8.106)" fill="#fff"/><rect width="4.053" height="4.053" transform="translate(12.159)" fill="#fff"/><rect width="4.053" height="4.053" transform="translate(24.319)" fill="#fff"/><rect width="4.053" height="4.053" transform="translate(36.478)" fill="#fff"/><rect width="4.053" height="4.053" transform="translate(40.531)" fill="#fff"/><rect width="4.053" height="4.053" transform="translate(52.691)" fill="#fff"/><rect width="4.053" height="4.053" transform="translate(56.744)" fill="#fff"/><rect width="4.053" height="4.053" transform="translate(60.797)" fill="#fff"/><rect width="4.053" height="4.053" transform="translate(64.85)" fill="#fff"/><rect width="4.053" height="4.053" transform="translate(72.956)" fill="#fff"/><rect width="4.053" height="4.053" transform="translate(81.062)" fill="#fff"/><rect width="4.053" height="4.053" transform="translate(85.115)" fill="#fff"/><rect width="4.053" height="4.053" transform="translate(93.222)" fill="#fff"/><rect width="4.053" height="4.053" transform="translate(97.275)" fill="#fff"/></g><g transform="translate(0 77.009)"><rect width="4.053" height="4.053" fill="#fff"/><rect width="4.053" height="4.053" transform="translate(8.106)" fill="#fff"/><rect width="4.053" height="4.053" transform="translate(12.159)" fill="#fff"/><rect width="4.053" height="4.053" transform="translate(16.213)" fill="#fff"/><rect width="4.053" height="4.053" transform="translate(20.266)" fill="#fff"/><rect width="4.053" height="4.053" transform="translate(28.372)" fill="#fff"/><rect width="4.053" height="4.053" transform="translate(32.425)" fill="#fff"/><rect width="4.053" height="4.053" transform="translate(48.637)" fill="#fff"/><rect width="4.053" height="4.053" transform="translate(52.691)" fill="#fff"/><rect width="4.053" height="4.053" transform="translate(60.797)" fill="#fff"/><rect width="4.053" height="4.053" transform="translate(64.85)" fill="#fff"/><rect width="4.053" height="4.053" transform="translate(81.062)" fill="#fff"/><rect width="4.053" height="4.053" transform="translate(85.115)" fill="#fff"/><rect width="4.053" height="4.053" transform="translate(97.275)" fill="#fff"/><rect width="4.053" height="4.053" transform="translate(101.328)" fill="#fff"/><rect width="4.053" height="4.053" transform="translate(109.434)" fill="#fff"/><rect width="4.053" height="4.053" transform="translate(113.488)" fill="#fff"/></g><g transform="translate(0 81.062)"><rect width="4.053" height="4.053" fill="#fff"/><rect width="4.053" height="4.053" transform="translate(16.213)" fill="#fff"/><rect width="4.053" height="4.053" transform="translate(20.266)" fill="#fff"/><rect width="4.053" height="4.053" transform="translate(24.319)" fill="#fff"/><rect width="4.053" height="4.053" transform="translate(36.478)" fill="#fff"/><rect width="4.053" height="4.053" transform="translate(48.637)" fill="#fff"/><rect width="4.053" height="4.053" transform="translate(56.744)" fill="#fff"/><rect width="4.053" height="4.053" transform="translate(60.797)" fill="#fff"/><rect width="4.053" height="4.053" transform="translate(68.903)" fill="#fff"/><rect width="4.053" height="4.053" transform="translate(77.009)" fill="#fff"/><rect width="4.053" height="4.053" transform="translate(81.062)" fill="#fff"/><rect width="4.053" height="4.053" transform="translate(85.115)" fill="#fff"/><rect width="4.053" height="4.053" transform="translate(89.169)" fill="#fff"/><rect width="4.053" height="4.053" transform="translate(93.222)" fill="#fff"/><rect width="4.053" height="4.053" transform="translate(97.275)" fill="#fff"/><rect width="4.053" height="4.053" transform="translate(105.381)" fill="#fff"/><rect width="4.053" height="4.053" transform="translate(109.434)" fill="#fff"/></g><g transform="translate(32.425 85.115)"><rect width="4.053" height="4.053" fill="#fff"/><rect width="4.053" height="4.053" transform="translate(8.106)" fill="#fff"/><rect width="4.053" height="4.053" transform="translate(32.425)" fill="#fff"/><rect width="4.053" height="4.053" transform="translate(36.478)" fill="#fff"/><rect width="4.053" height="4.053" transform="translate(40.531)" fill="#fff"/><rect width="4.053" height="4.053" transform="translate(48.637)" fill="#fff"/><rect width="4.053" height="4.053" transform="translate(64.85)" fill="#fff"/><rect width="4.053" height="4.053" transform="translate(68.903)" fill="#fff"/><rect width="4.053" height="4.053" transform="translate(72.956)" fill="#fff"/><rect width="4.053" height="4.053" transform="translate(77.009)" fill="#fff"/></g><g transform="translate(0 89.169)"><rect width="4.053" height="4.053" fill="#fff"/><rect width="4.053" height="4.053" transform="translate(4.053)" fill="#fff"/><rect width="4.053" height="4.053" transform="translate(8.106)" fill="#fff"/><rect width="4.053" height="4.053" transform="translate(12.159)" fill="#fff"/><rect width="4.053" height="4.053" transform="translate(16.213)" fill="#fff"/><rect width="4.053" height="4.053" transform="translate(20.266)" fill="#fff"/><rect width="4.053" height="4.053" transform="translate(24.319)" fill="#fff"/><rect width="4.053" height="4.053" transform="translate(32.425)" fill="#fff"/><rect width="4.053" height="4.053" transform="translate(36.478)" fill="#fff"/><rect width="4.053" height="4.053" transform="translate(40.531)" fill="#fff"/><rect width="4.053" height="4.053" transform="translate(44.584)" fill="#fff"/><rect width="4.053" height="4.053" transform="translate(48.637)" fill="#fff"/><rect width="4.053" height="4.053" transform="translate(60.797)" fill="#fff"/><rect width="4.053" height="4.053" transform="translate(77.009)" fill="#fff"/><rect width="4.053" height="4.053" transform="translate(81.062)" fill="#fff"/><rect width="4.053" height="4.053" transform="translate(89.169)" fill="#fff"/><rect width="4.053" height="4.053" transform="translate(97.275)" fill="#fff"/><rect width="4.053" height="4.053" transform="translate(101.328)" fill="#fff"/><rect width="4.053" height="4.053" transform="translate(105.381)" fill="#fff"/></g><g transform="translate(0 93.222)"><rect width="4.053" height="4.053" fill="#fff"/><rect width="4.053" height="4.053" transform="translate(24.319)" fill="#fff"/><rect width="4.053" height="4.053" transform="translate(40.531)" fill="#fff"/><rect width="4.053" height="4.053" transform="translate(44.584)" fill="#fff"/><rect width="4.053" height="4.053" transform="translate(56.744)" fill="#fff"/><rect width="4.053" height="4.053" transform="translate(60.797)" fill="#fff"/><rect width="4.053" height="4.053" transform="translate(64.85)" fill="#fff"/><rect width="4.053" height="4.053" transform="translate(72.956)" fill="#fff"/><rect width="4.053" height="4.053" transform="translate(77.009)" fill="#fff"/><rect width="4.053" height="4.053" transform="translate(81.062)" fill="#fff"/><rect width="4.053" height="4.053" transform="translate(97.275)" fill="#fff"/><rect width="4.053" height="4.053" transform="translate(101.328)" fill="#fff"/><rect width="4.053" height="4.053" transform="translate(109.434)" fill="#fff"/><rect width="4.053" height="4.053" transform="translate(113.488)" fill="#fff"/></g><g transform="translate(0 97.275)"><rect width="4.053" height="4.053" fill="#fff"/><rect width="4.053" height="4.053" transform="translate(8.106)" fill="#fff"/><rect width="4.053" height="4.053" transform="translate(12.159)" fill="#fff"/><rect width="4.053" height="4.053" transform="translate(16.213)" fill="#fff"/><rect width="4.053" height="4.053" transform="translate(24.319)" fill="#fff"/><rect width="4.053" height="4.053" transform="translate(32.425)" fill="#fff"/><rect width="4.053" height="4.053" transform="translate(44.584)" fill="#fff"/><rect width="4.053" height="4.053" transform="translate(60.797)" fill="#fff"/><rect width="4.053" height="4.053" transform="translate(64.85)" fill="#fff"/><rect width="4.053" height="4.053" transform="translate(68.903)" fill="#fff"/><rect width="4.053" height="4.053" transform="translate(81.062)" fill="#fff"/><rect width="4.053" height="4.053" transform="translate(85.115)" fill="#fff"/><rect width="4.053" height="4.053" transform="translate(89.169)" fill="#fff"/><rect width="4.053" height="4.053" transform="translate(93.222)" fill="#fff"/><rect width="4.053" height="4.053" transform="translate(97.275)" fill="#fff"/><rect width="4.053" height="4.053" transform="translate(101.328)" fill="#fff"/><rect width="4.053" height="4.053" transform="translate(105.381)" fill="#fff"/><rect width="4.053" height="4.053" transform="translate(109.434)" fill="#fff"/></g><g transform="translate(0 101.328)"><rect width="4.053" height="4.053" fill="#fff"/><rect width="4.053" height="4.053" transform="translate(8.106)" fill="#fff"/><rect width="4.053" height="4.053" transform="translate(12.159)" fill="#fff"/><rect width="4.053" height="4.053" transform="translate(16.213)" fill="#fff"/><rect width="4.053" height="4.053" transform="translate(24.319)" fill="#fff"/><rect width="4.053" height="4.053" transform="translate(32.425)" fill="#fff"/><rect width="4.053" height="4.053" transform="translate(48.637)" fill="#fff"/><rect width="4.053" height="4.053" transform="translate(52.691)" fill="#fff"/><rect width="4.053" height="4.053" transform="translate(56.744)" fill="#fff"/><rect width="4.053" height="4.053" transform="translate(60.797)" fill="#fff"/><rect width="4.053" height="4.053" transform="translate(64.85)" fill="#fff"/><rect width="4.053" height="4.053" transform="translate(72.956)" fill="#fff"/><rect width="4.053" height="4.053" transform="translate(77.009)" fill="#fff"/><rect width="4.053" height="4.053" transform="translate(109.434)" fill="#fff"/><rect width="4.053" height="4.053" transform="translate(113.488)" fill="#fff"/></g><g transform="translate(0 105.381)"><rect width="4.053" height="4.053" fill="#fff"/><rect width="4.053" height="4.053" transform="translate(8.106)" fill="#fff"/><rect width="4.053" height="4.053" transform="translate(12.159)" fill="#fff"/><rect width="4.053" height="4.053" transform="translate(16.213)" fill="#fff"/><rect width="4.053" height="4.053" transform="translate(24.319)" fill="#fff"/><rect width="4.053" height="4.053" transform="translate(32.425)" fill="#fff"/><rect width="4.053" height="4.053" transform="translate(52.691)" fill="#fff"/><rect width="4.053" height="4.053" transform="translate(56.744)" fill="#fff"/><rect width="4.053" height="4.053" transform="translate(60.797)" fill="#fff"/><rect width="4.053" height="4.053" transform="translate(72.956)" fill="#fff"/><rect width="4.053" height="4.053" transform="translate(93.222)" fill="#fff"/><rect width="4.053" height="4.053" transform="translate(97.275)" fill="#fff"/><rect width="4.053" height="4.053" transform="translate(105.381)" fill="#fff"/><rect width="4.053" height="4.053" transform="translate(109.434)" fill="#fff"/></g><g transform="translate(0 109.434)"><rect width="4.053" height="4.053" fill="#fff"/><rect width="4.053" height="4.053" transform="translate(24.319)" fill="#fff"/><rect width="4.053" height="4.053" transform="translate(32.425)" fill="#fff"/><rect width="4.053" height="4.053" transform="translate(48.637)" fill="#fff"/><rect width="4.053" height="4.053" transform="translate(52.691)" fill="#fff"/><rect width="4.053" height="4.053" transform="translate(60.797)" fill="#fff"/><rect width="4.053" height="4.053" transform="translate(81.062)" fill="#fff"/><rect width="4.053" height="4.053" transform="translate(85.115)" fill="#fff"/><rect width="4.053" height="4.053" transform="translate(101.328)" fill="#fff"/><rect width="4.053" height="4.053" transform="translate(109.434)" fill="#fff"/></g><g transform="translate(0 113.488)"><rect width="4.053" height="4.053" fill="#fff"/><rect width="4.053" height="4.053" transform="translate(4.053)" fill="#fff"/><rect width="4.053" height="4.053" transform="translate(8.106)" fill="#fff"/><rect width="4.053" height="4.053" transform="translate(12.159)" fill="#fff"/><rect width="4.053" height="4.053" transform="translate(16.213)" fill="#fff"/><rect width="4.053" height="4.053" transform="translate(20.266)" fill="#fff"/><rect width="4.053" height="4.053" transform="translate(24.319)" fill="#fff"/><rect width="4.053" height="4.053" transform="translate(32.425)" fill="#fff"/><rect width="4.053" height="4.053" transform="translate(36.478)" fill="#fff"/><rect width="4.053" height="4.053" transform="translate(48.637)" fill="#fff"/><rect width="4.053" height="4.053" transform="translate(56.744)" fill="#fff"/><rect width="4.053" height="4.053" transform="translate(60.797)" fill="#fff"/><rect width="4.053" height="4.053" transform="translate(68.903)" fill="#fff"/><rect width="4.053" height="4.053" transform="translate(72.956)" fill="#fff"/><rect width="4.053" height="4.053" transform="translate(77.009)" fill="#fff"/><rect width="4.053" height="4.053" transform="translate(85.115)" fill="#fff"/><rect width="4.053" height="4.053" transform="translate(89.169)" fill="#fff"/><rect width="4.053" height="4.053" transform="translate(97.275)" fill="#fff"/><rect width="4.053" height="4.053" transform="translate(101.328)" fill="#fff"/><rect width="4.053" height="4.053" transform="translate(105.381)" fill="#fff"/></g></svg>