<svg xmlns="http://www.w3.org/2000/svg" width="775.626" height="575.684" viewBox="0 0 775.626 575.684"><defs><style>.a{fill:#6277d7;}.b{fill:#e1e9ff;}.c{fill:#89aeff;}.d{fill:#d2dcff;}.e{fill:#86a2e2;}.f{fill:#aec3ff;}.g{fill:#fcbeb7;}.h{fill:#311643;}.i{fill:#f49795;}.j{fill:none;}.k{fill:#fff;}.l{fill:#f9afab;}.m{fill:#ebedf4;}.n{fill:#2f3d6c;}.o{fill:#4a5ea3;}.p{fill:#4a62d3;}.q{fill:#fe9ecc;}.r{fill:#ff78ba;}.s{fill:#f9a0c0;}.t{fill:#ffd9e8;}</style></defs><g transform="translate(370.878)"><rect class="a" width="271.925" height="260.102" rx="7.963"/><rect class="b" width="124.639" height="7.547" rx="2.39" transform="translate(33.854 30.103)"/><rect class="b" width="86.996" height="7.547" rx="2.39" transform="translate(33.854 48.929)"/><rect class="c" width="26.315" height="5.39" rx="1.707" transform="translate(33.854 81.932)"/><g transform="translate(50.302 144.237)"><rect class="c" width="72.649" height="16.279" rx="1.707" transform="translate(0 99.671) rotate(-90)"/><rect class="c" width="99.671" height="16.279" rx="1.707" transform="translate(29.592 99.671) rotate(-90)"/><rect class="c" width="72.649" height="16.279" rx="1.707" transform="translate(65.231 99.671) rotate(-90)"/><rect class="c" width="99.671" height="16.279" rx="1.707" transform="translate(94.823 99.671) rotate(-90)"/><rect class="c" width="52.953" height="16.279" rx="1.707" transform="translate(130.461 99.67) rotate(-90)"/><rect class="c" width="72.649" height="16.279" rx="1.707" transform="translate(160.054 99.671) rotate(-90)"/></g><g transform="translate(50.302 178.319)"><rect class="d" width="47.808" height="16.279" rx="1.707" transform="translate(0 65.59) rotate(-90)"/><rect class="d" width="65.59" height="16.279" rx="1.707" transform="translate(29.592 65.59) rotate(-90)"/><rect class="d" width="47.808" height="16.279" rx="1.707" transform="translate(65.231 65.59) rotate(-90)"/><rect class="d" width="65.59" height="16.279" rx="1.707" transform="translate(94.823 65.59) rotate(-90)"/><rect class="d" width="34.846" height="16.279" rx="1.707" transform="translate(130.461 65.59) rotate(-90)"/><rect class="d" width="47.808" height="16.279" rx="1.707" transform="translate(160.054 65.59) rotate(-90)"/></g></g><g transform="translate(453.775 183.902)"><g transform="translate(48.614 107.026)"><path class="d" d="M2421.72,3529.56l16.174,134.083h5.3l-16.173-134.083Z" transform="translate(-2350.249 -3378.888)"/><path class="d" d="M2466.987,3529.559l1.819,15.08,14.353,119h5.305l-14.425-119.594-1.747-14.491Z" transform="translate(-2324.044 -3378.888)"/><path class="d" d="M2421.72,3663.644h5.3l2.237-18.544,2.652-21.987,8.724-72.324,2.56-21.229h-5.3l-2.633,21.835-6,49.727-2.652,21.987Z" transform="translate(-2350.249 -3378.888)"/><path class="d" d="M2376.453,3663.644h5.3l12.552-104.073h0l3.619-30.012h-5.3l-3.69,30.591Z" transform="translate(-2376.453 -3378.888)"/><g transform="translate(70.606 61.038)"><rect class="d" width="5.305" height="81.108" transform="translate(72.078)"/><rect class="d" width="5.304" height="81.108"/></g><path class="d" d="M2386.849,3524.16h72.88a4.262,4.262,0,0,0-4.263,4.261h0a4.263,4.263,0,0,0,4.263,4.263h-72.88a4.263,4.263,0,0,1-4.263-4.263h0A4.262,4.262,0,0,1,2386.849,3524.16Z" transform="translate(-2372.903 -3382.014)"/><path class="e" d="M2428.745,3528.421h0a4.262,4.262,0,0,1,4.263-4.261h62.927a4.26,4.26,0,0,1,4.261,4.261h0a4.262,4.262,0,0,1-4.261,4.263h-62.927A4.263,4.263,0,0,1,2428.745,3528.421Z" transform="translate(-2346.182 -3382.014)"/><rect class="d" width="97.933" height="61.038" rx="3.763" transform="translate(60.331)"/><path class="f" d="M2466.987,3529.559l1.818,15.08,5.234-.591-1.748-14.489Z" transform="translate(-2324.044 -3378.888)"/><path class="f" d="M2432.928,3529.559l-2.633,21.834q2.7-.3,5.378-.606l2.561-21.228Z" transform="translate(-2345.285 -3378.888)"/><path class="f" d="M2384.359,3560.15q2.57-.274,5.375-.58h0l3.619-30.011h-5.3Z" transform="translate(-2371.877 -3378.888)"/><path class="f" d="M2472.128,3472.79h-5.305v11.2l5.305-.587Z" transform="translate(-2324.139 -3411.752)"/><path class="f" d="M2421.172,3472.79v19.181l5.3-.586V3472.79Z" transform="translate(-2350.566 -3411.752)"/></g><g transform="translate(88.495)"><g transform="translate(1.925 23.281)"><path class="g" d="M2403.008,3399c1.969,23.892,19.324,38.868,29.509,38.868a18.873,18.873,0,0,0,4.929-.75v11.916h25.834v-30.3c.238-.626.472-1.321.7-2.063,11.454-1.095,10.978-20.022,4.173-20.022-1.238,0-2.067,1.17-2.586,2.349l-1.691,1.689v-8.551s-3.8.355-11.283-11.046c-3.229,4.9-28.982,12.59-49.648,9.146C2402.943,3390.235,2402.89,3394.488,2403.008,3399Z" transform="translate(-2402.931 -3381.09)"/></g><path class="h" d="M2435.006,3366.345c17.816,0,21.379,9.5,21.379,9.5,7.6,0,19.242,13.9,12.233,29.338l-.036.036-4,4v-8.552s-3.8.355-11.283-11.045c-3.229,4.9-28.982,12.59-49.648,9.145,0,0-.053,4.253.065,8.761v.015C2395.993,3385.216,2411.489,3366.345,2435.006,3366.345Z" transform="translate(-2401.712 -3366.345)"/><g transform="translate(39.529 42.196)"><path class="h" d="M2428.174,3398.584a1.426,1.426,0,0,0,1.426-1.426V3394.5a1.426,1.426,0,0,0-2.851,0v2.662A1.425,1.425,0,0,0,2428.174,3398.584Z" transform="translate(-2426.748 -3393.071)"/></g><g transform="translate(13.101 42.196)"><path class="h" d="M2411.436,3398.584a1.426,1.426,0,0,0,1.425-1.426V3394.5a1.426,1.426,0,0,0-2.851,0v2.662A1.426,1.426,0,0,0,2411.436,3398.584Z" transform="translate(-2410.01 -3393.071)"/></g><g transform="translate(28.647 59.249)"><path class="h" d="M2421.684,3408.968a8.146,8.146,0,0,0,5.326-1.828,7.222,7.222,0,0,0,1.895-2.348.653.653,0,0,0-1.19-.538h0c-.074.161-1.88,3.95-7.128,3.344a.653.653,0,1,0-.15,1.3A10.781,10.781,0,0,0,2421.684,3408.968Z" transform="translate(-2419.856 -3403.871)"/></g><circle class="i" cx="7.047" cy="7.047" r="7.047" transform="translate(43.37 45.432)"/><path class="i" d="M2403.444,3396.316a50.262,50.262,0,0,0,4.283,12.891,7.048,7.048,0,1,0-4.283-12.891Z" transform="translate(-2400.71 -3349.688)"/><g transform="translate(4.539 31.046)"><circle class="j" cx="8.681" cy="8.681" r="8.681" transform="translate(27.735 1.306)"/><circle class="j" cx="8.681" cy="8.681" r="8.681" transform="matrix(0.16, -0.987, 0.987, 0.16, 0.029, 17.164)"/><path class="k" d="M2404.587,3395.995a9.986,9.986,0,0,0,19.965.377,6.52,6.52,0,0,1,6.472-.008,9.983,9.983,0,1,0,.051-1.442,7.678,7.678,0,0,0-6.572,0,9.987,9.987,0,0,0-19.916,1.069Zm27.735,0a8.681,8.681,0,1,1,8.68,8.681A8.69,8.69,0,0,1,2432.322,3395.995Zm-26.427,0a8.681,8.681,0,1,1,8.681,8.681A8.69,8.69,0,0,1,2405.895,3395.995Z" transform="translate(-2404.587 -3386.008)"/></g><path class="l" d="M2424.792,3431.895v-11.916c5.842-1.606,12.494-5.539,17.491-9.289Z" transform="translate(-2388.352 -3340.675)"/></g><path class="m" d="M2378.3,3568.927l5.394-.739,5.108-42.349H2383.5Z" transform="translate(-2326.768 -3274.015)"/><path class="g" d="M2460.127,3455.563" transform="translate(-2279.401 -3314.698)"/><path class="g" d="M2389.1,3450.631l-4.685,8.981h24.969Z" transform="translate(-2323.233 -3317.553)"/><path class="n" d="M2439.617,3599.651v19.335a4.082,4.082,0,0,1-4.082,4.083h-54.841a.944.944,0,0,1-.944-.946v-3.563a4.4,4.4,0,0,1,2.566-4l31.71-14.911Z" transform="translate(-2325.93 -3231.287)"/><path class="g" d="M2427.7,3592.684l-.013,11h-25.578l-1.769-11Z" transform="translate(-2314.012 -3235.32)"/><path class="c" d="M2446.5,3417l-34.725,15.686a22.773,22.773,0,0,0-11,10.582l-13.394,26.829,20.284,8.981-1.682,59.3h101.081L2502.648,3483l18.28.118v-30.3a23.263,23.263,0,0,0-14.3-21.468L2472.284,3417S2457.28,3426.848,2446.5,3417Z" transform="translate(-2321.515 -3337.02)"/><g transform="translate(116.672 82.116)"><path class="k" d="M2419.558,3419.827a30.29,30.29,0,0,0,19.57,7.094,31.368,31.368,0,0,0,20.744-8.106l-1.1-.461a30.083,30.083,0,0,1-19.64,7.521,29.256,29.256,0,0,1-18.493-6.516Z" transform="translate(-2419.558 -3418.354)"/></g><path class="n" d="M2405.531,3599.651v19.335a4.084,4.084,0,0,1-4.083,4.083h-54.842a.945.945,0,0,1-.944-.946v-3.563a4.4,4.4,0,0,1,2.566-4l31.712-14.911Z" transform="translate(-2345.663 -3231.287)"/><path class="g" d="M2393.612,3592.684l-.013,11h-25.577l-1.769-11Z" transform="translate(-2333.744 -3235.32)"/><path class="a" d="M2472.979,3493.879v1.034a47.007,47.007,0,0,1-47.006,47.041h-21.836l-3.022,107.927h-27.361L2353.582,3521.2a23.655,23.655,0,0,1,23.369-27.319Z" transform="translate(-2341.248 -3292.518)"/><path class="o" d="M2353.292,3516.395a13.095,13.095,0,1,0,11.666-20.453A23.678,23.678,0,0,0,2353.292,3516.395Z" transform="translate(-2341.247 -3291.323)"/><path class="o" d="M2388.471,3508.577l-2.977,24.869h17.915Z" transform="translate(-2322.605 -3284.009)"/><path class="a" d="M2507.066,3493.879v1.034a47,47,0,0,1-47.007,47.041h-21.836l-3.022,107.927h-27.359L2387.669,3521.2a23.654,23.654,0,0,1,23.369-27.319Z" transform="translate(-2321.515 -3292.518)"/><path class="g" d="M2501.347,3458.942l-.972,33.588a16.788,16.788,0,0,1-16.779,16.3h-58.468l-3.925-13.674,51.573-8.5.365-27.9Z" transform="translate(-2301.934 -3312.848)"/><path class="l" d="M2460.981,3489.228a8.651,8.651,0,0,0,3.074,6.622,16.805,16.805,0,0,0,12.624-11.7,8.669,8.669,0,0,0-15.7,5.076Z" transform="translate(-2278.907 -3300.23)"/><path class="p" d="M2457,3458.759l-7.918,29.141,7.553-1.246.365-27.9" transform="translate(-2285.795 -3312.847)"/><path class="l" d="M2428.408,3481.059l9.217,14.862h-12.5l-3.926-13.674Z" transform="translate(-2301.935 -3299.939)"/><path class="o" d="M2364.8,3456.319h76.238a7.265,7.265,0,0,1,6.982,5.26l13.97,48.664H2492.9a2.69,2.69,0,1,1,0,5.379H2372.179l-14.363-50.035A7.264,7.264,0,0,1,2364.8,3456.319Z" transform="translate(-2338.794 -3314.26)"/><path class="o" d="M2387.38,3515.9a13.1,13.1,0,1,0,11.692-19.967A23.691,23.691,0,0,0,2387.38,3515.9Z" transform="translate(-2321.514 -3291.329)"/><ellipse class="c" cx="2.829" cy="4.131" rx="2.829" ry="4.131" transform="matrix(0.996, -0.088, 0.088, 0.996, 64.695, 169.771)"/><path class="p" d="M2462.25,3436.707a7.668,7.668,0,0,0,14.591,3.3,23.256,23.256,0,0,0-6.412-10.95c-.168-.013-.339-.017-.511-.017A7.667,7.667,0,0,0,2462.25,3436.707Z" transform="translate(-2278.172 -3330.052)"/><path class="p" d="M2396.161,3436.71a7.668,7.668,0,0,0,11.066-9.928l-.542.245A22.765,22.765,0,0,0,2396.161,3436.71Z" transform="translate(-2316.431 -3331.359)"/></g><g transform="translate(79.624 184.802)"><path class="d" d="M2309.542,3476.868l-26.762,216.377h-5.313l26.762-216.377Z" transform="translate(-2010.99 -3303.264)"/><g transform="translate(90.468 104.756)"><path class="d" d="M2232.845,3528.849l-16.2,134.305h-5.312l16.2-134.305Z" transform="translate(-2139.742 -3377.929)"/><path class="d" d="M2187.5,3528.848l-1.823,15.1-14.377,119.2h-5.313l14.449-119.791,1.75-14.515Z" transform="translate(-2165.99 -3377.929)"/><path class="d" d="M2232.845,3663.154h-5.314l-2.24-18.575-2.656-22.023-8.738-72.443-2.564-21.265h5.314l2.638,21.872,6.008,49.808,2.656,22.023Z" transform="translate(-2139.742 -3377.929)"/><path class="d" d="M2278.186,3663.154h-5.313L2260.3,3558.91h0l-3.625-30.062h5.314l3.7,30.642Z" transform="translate(-2113.495 -3377.929)"/><g transform="translate(16.458 61.139)"><rect class="d" width="5.314" height="81.241"/><rect class="d" width="5.312" height="81.241" transform="translate(72.198)"/></g><path class="d" d="M2288.216,3523.44h-73a4.27,4.27,0,0,1,4.269,4.269h0a4.269,4.269,0,0,1-4.269,4.269h73a4.269,4.269,0,0,0,4.27-4.269h0A4.27,4.27,0,0,0,2288.216,3523.44Z" transform="translate(-2137.494 -3381.061)"/><path class="e" d="M2244.159,3527.709h0a4.27,4.27,0,0,0-4.269-4.269h-63.03a4.269,4.269,0,0,0-4.269,4.269h0a4.268,4.268,0,0,0,4.269,4.269h63.03A4.269,4.269,0,0,0,2244.159,3527.709Z" transform="translate(-2162.168 -3381.061)"/><rect class="d" width="98.094" height="61.139" rx="5.112" transform="translate(6.167)"/><path class="f" d="M2182.2,3528.848l-1.822,15.105-5.242-.59,1.751-14.515Z" transform="translate(-2160.693 -3377.929)"/><path class="f" d="M2216.645,3528.848l2.638,21.872-5.387-.607-2.564-21.265Z" transform="translate(-2139.742 -3377.929)"/><path class="f" d="M2265.682,3559.49q-2.572-.275-5.382-.58h0l-3.625-30.062h5.314Z" transform="translate(-2113.495 -3377.929)"/><path class="f" d="M2176.414,3471.985h5.313v11.221l-5.313-.588Z" transform="translate(-2159.956 -3410.847)"/><path class="f" d="M2227.454,3471.985V3491.2l-5.312-.587v-18.625Z" transform="translate(-2133.485 -3410.847)"/></g><g transform="translate(93.603)"><g transform="translate(31.846)"><path class="g" d="M2253.631,3381.687c-6.244,10.327-25.323,25.188-53.7,16.119h0a1.874,1.874,0,0,0-.27-.022c-6.748,0-7.22,18.773,4.138,19.858q.253.826.515,1.564v30.526h25.621v-11.865a18.92,18.92,0,0,0,5.065.792c10.6,0,29.02-16.348,29.44-42.1C2261.606,3395.921,2253.631,3388.893,2253.631,3381.687Z" transform="translate(-2184.252 -3358.364)"/><path class="h" d="M2271.7,3397.622c0-16.964-14.96-30.706-37.393-30.706-18.643,0-25.051,10.288-25.051,10.288s-17.622,3.808-17.622,25.706v55.377H2266.7v-45.6A23.613,23.613,0,0,0,2271.7,3397.622Zm-34.821,49.591a18.925,18.925,0,0,1-5.065-.792v11.865h-25.621v-30.527c-.175-.491-.346-1.013-.515-1.564-11.359-1.085-10.886-19.858-4.138-19.858a1.878,1.878,0,0,1,.27.022h0c28.373,9.069,47.452-5.792,53.7-16.119,0,7.206,7.975,14.233,10.813,14.872C2265.9,3430.865,2247.476,3447.212,2236.878,3447.212Z" transform="translate(-2186.127 -3366.915)"/><path class="g" d="M2188.146,3426.768l20.067-9.3,11.012.291,14.609.689,20.994,6.375v26.786h-66.681Z" transform="translate(-2188.146 -3337.649)"/><path class="l" d="M2244.544,3456.858v-28.425l-20.994-6.375v-1.3c-5.937-1.675-12.685-5.735-17.64-9.519Z" transform="translate(-2177.863 -3341.255)"/><circle class="i" cx="6.989" cy="6.989" r="6.989" transform="translate(25.014 45.96)"/><path class="i" d="M2242.357,3397.21a49.845,49.845,0,0,1-4.247,12.785,6.99,6.99,0,1,1,4.247-12.785Z" transform="translate(-2163.065 -3350.064)"/><g transform="translate(30.012 28.709)"><circle class="j" cx="8.609" cy="8.609" r="8.609" transform="translate(26.21 6.589) rotate(-22.5)"/><circle class="j" cx="8.609" cy="8.609" r="8.609" transform="translate(0 6.589) rotate(-22.5)"/><path class="k" d="M2244.119,3386.987a9.92,9.92,0,0,0-9.847,8.845,7.613,7.613,0,0,0-6.515-.005,9.916,9.916,0,1,0,.049,1.429,6.405,6.405,0,0,1,6.418.011,9.9,9.9,0,1,0,9.895-10.28ZM2217.91,3405.5a8.609,8.609,0,1,1,8.609-8.608A8.618,8.618,0,0,1,2217.91,3405.5Zm26.209,0a8.609,8.609,0,1,1,8.61-8.608A8.618,8.618,0,0,1,2244.119,3405.5Z" transform="translate(-2206.662 -3384.005)"/></g><g transform="translate(40.276 42.463)"><g transform="translate(25.786)"><path class="h" d="M2231.4,3399.277a1.414,1.414,0,0,1-1.413-1.413v-2.641a1.414,1.414,0,0,1,2.828,0v2.641A1.414,1.414,0,0,1,2231.4,3399.277Z" transform="translate(-2229.987 -3393.809)"/></g><path class="h" d="M2215.068,3399.277a1.414,1.414,0,0,1-1.414-1.413v-2.641a1.414,1.414,0,0,1,2.828,0v2.641A1.414,1.414,0,0,1,2215.068,3399.277Z" transform="translate(-2213.655 -3393.809)"/></g><g transform="translate(44.562 59.662)"><path class="h" d="M2223.589,3409.759a8.09,8.09,0,0,1-5.283-1.813,7.2,7.2,0,0,1-1.879-2.329.648.648,0,0,1,1.18-.535h0c.074.161,1.866,3.919,7.071,3.317a.648.648,0,1,1,.149,1.287A11.054,11.054,0,0,1,2223.589,3409.759Z" transform="translate(-2216.37 -3404.703)"/></g></g><path class="n" d="M2276.449,3612.415l-23.5-10.1,1.2,5.823-28.911-9.079v8.285a8.28,8.28,0,0,0,3.919,7.037l2.485,7.108a1.533,1.533,0,0,0,1.447,1.027h0a1.531,1.531,0,0,0,1.531-1.532v-4.623l19.76,6.155h19.989a5.263,5.263,0,0,0,5.264-5.262h0A5.262,5.262,0,0,0,2276.449,3612.415Z" transform="translate(-2134.827 -3232.531)"/><path class="n" d="M2308.909,3612.415l-23.5-10.1,1.2,5.823-28.912-9.079v8.285a8.28,8.28,0,0,0,3.919,7.037l2.487,7.108a1.531,1.531,0,0,0,2.976-.505v-4.623l19.761,6.155h19.989a5.262,5.262,0,0,0,5.262-5.262h0A5.262,5.262,0,0,0,2308.909,3612.415Z" transform="translate(-2116.037 -3232.531)"/><path class="g" d="M2225.239,3592.078l.013,11.018,28.9,9.079-1.2-5.824-2.4-1.225,2.1-13.048Z" transform="translate(-2134.828 -3236.572)"/><path class="g" d="M2257.7,3592.078l.014,11.018,28.9,9.079-1.205-5.824-2.4-1.222,2.1-13.052Z" transform="translate(-2116.036 -3236.572)"/><path class="a" d="M2212.109,3493.11v1.036a47.083,47.083,0,0,0,47.083,47.118h21.874l3.025,108.1h27.4l20.208-128.894a23.694,23.694,0,0,0-23.408-27.364Z" transform="translate(-2142.428 -3293.862)"/><path class="o" d="M2255.366,3515.561l1.881,12.708h-3.991Z" transform="translate(-2118.61 -3280.865)"/><path class="a" d="M2184.919,3519.642h0a31.16,31.16,0,0,0,31.047,28.516h29.652l3.027,108.1h27.4l19.994-127.531A24.874,24.874,0,0,0,2271.47,3500h-2.193l-6.292-18.8H2190.8l-5.489,30.233A31.154,31.154,0,0,0,2184.919,3519.642Z" transform="translate(-2158.233 -3300.756)"/><g transform="translate(0 82.754)"><path class="k" d="M2217.568,3434.9c4.866,0,8.759-4.686,11.382-9.432H2201.2C2205.433,3430.2,2211.229,3434.9,2217.568,3434.9Z" transform="translate(-2148.743 -3415.775)"/><path class="q" d="M2288.953,3439.173l-1.92-2.989a24.864,24.864,0,0,0-13.673-10.345l-21.381-6.511c0,.774-1.345,5.257-3.8,9.69-2.624,4.746-6.516,9.432-11.382,9.432-6.339,0-12.135-4.7-16.368-9.432a59.734,59.734,0,0,1-6.977-9.641l-19.106,8.852a28.472,28.472,0,0,0-15.658,18.961l-8.516,27.215a48.247,48.247,0,0,0-2.2,14.39v2.253a10.592,10.592,0,0,0,10.593,10.591h20.369l1.6,15.381h72.188l18.195-74.782Z" transform="translate(-2167.976 -3419.328)"/></g><g transform="translate(39.469 84.178)"><path class="k" d="M2223.042,3444.679a23.657,23.657,0,0,1-12.138-3.63,43.374,43.374,0,0,1-9.48-7.908,65.719,65.719,0,0,1-8.45-11.5l1.073-.5a64.032,64.032,0,0,0,8.259,11.218,42.139,42.139,0,0,0,9.211,7.685,22.5,22.5,0,0,0,11.524,3.458,14.476,14.476,0,0,0,9.587-3.551,24.134,24.134,0,0,0,5.864-7.935,44.8,44.8,0,0,0,3.692-11.785l1.171.357a44.987,44.987,0,0,1-3.791,11.921,25.374,25.374,0,0,1-6.162,8.332A15.618,15.618,0,0,1,2223.042,3444.679Z" transform="translate(-2192.974 -3420.23)"/></g><path class="o" d="M2296.2,3518.433a13.118,13.118,0,1,1-9.611-22.045c.341,0,.68.015,1.016.039A23.647,23.647,0,0,1,2296.2,3518.433Z" transform="translate(-2106.906 -3291.964)"/><path class="o" d="M2264.493,3515.741a13.119,13.119,0,1,1-9.472-19.188A24.87,24.87,0,0,1,2264.493,3515.741Z" transform="translate(-2126.38 -3291.964)"/><path class="g" d="M2177.5,3478.445h79.209v-10l-78.12-8.988a9.524,9.524,0,0,0-10.613,9.462h0A9.524,9.524,0,0,0,2177.5,3478.445Z" transform="translate(-2167.976 -3313.38)"/><path class="o" d="M2336.645,3433.838h-80.932a7.277,7.277,0,0,0-6.993,5.269l-13.994,48.744h-30.9a2.737,2.737,0,0,0-2.757,2.6,2.693,2.693,0,0,0,2.692,2.793h120.923l15.647-54.508A3.834,3.834,0,0,0,2336.645,3433.838Z" transform="translate(-2148.821 -3328.175)"/><ellipse class="n" cx="4.137" cy="2.834" rx="4.137" ry="2.834" transform="matrix(0.088, -0.996, 0.996, 0.088, 138.131, 141.168)"/><path class="o" d="M2189.659,3481.2l-2.888,15.908,76.736-10.948-1.659-4.959Z" transform="translate(-2157.096 -3300.756)"/><path class="r" d="M2191.256,3429.606a8.69,8.69,0,0,1-14.417,6.536,28.462,28.462,0,0,1,12.38-11.079l.583-.27A8.652,8.652,0,0,1,2191.256,3429.606Z" transform="translate(-2162.845 -3333.41)"/><path class="r" d="M2249.493,3436.275a8.691,8.691,0,0,1-12.031-11.941,24.858,24.858,0,0,1,10.111,8.952Z" transform="translate(-2128.516 -3333.676)"/><path class="r" d="M2246.87,3451.987c-.337,1.17-15.038,17-15.038,17l-39.167-1.977,48.3,5.558Z" transform="translate(-2153.684 -3317.668)"/></g><g transform="translate(0 173.604)"><path class="d" d="M2140.768,3476.869l-7.16,57.891-19.6,158.486h-5.314l19.546-158.033,7.216-58.343Z" transform="translate(-2108.691 -3476.869)"/><path class="d" d="M2185.306,3693.245h-5.313l-20.145-162.873-6.617-53.5h5.314l6.562,53.06Z" transform="translate(-2082.909 -3476.869)"/><path class="f" d="M2128.287,3476.869h5.314l-7.159,57.891-5.37.453Z" transform="translate(-2101.525 -3476.869)"/><path class="f" d="M2158.544,3476.869l6.562,53.06-5.259.443-6.617-53.5Z" transform="translate(-2082.909 -3476.869)"/></g><g transform="translate(336.797 173.604)"><path class="d" d="M2354.081,3693.245h-5.314l-22.9-185.113L2322,3476.869h5.314l3.812,30.819Z" transform="translate(-2322.005 -3476.869)"/><path class="f" d="M2331.131,3507.688l-5.259.444L2322,3476.869h5.314Z" transform="translate(-2322.005 -3476.869)"/></g><g transform="translate(9.753 165.065)"><path class="d" d="M2433.647,3471.46H2162.653V3480h270.994a4.27,4.27,0,0,0,4.269-4.271h0A4.27,4.27,0,0,0,2433.647,3471.46Z" transform="translate(-2087.207 -3471.46)"/><path class="e" d="M2135.153,3471.46H2119.14a4.271,4.271,0,0,0-4.271,4.27h0a4.271,4.271,0,0,0,4.271,4.271h71.175v-8.54Z" transform="translate(-2114.869 -3471.46)"/></g><g transform="translate(293.758 139.185)"><path class="a" d="M2351.086,3466.66v-2.176a1.219,1.219,0,0,0-1.219-1.219H2299.36a4.614,4.614,0,0,0-4.615,4.614h0v3.712h0a4.614,4.614,0,0,0,4.615,4.613h50.507a1.218,1.218,0,0,0,1.219-1.219v-2.176a1.218,1.218,0,0,0-1.219-1.219h-48.652a1.857,1.857,0,0,1-1.855-1.856h0a1.855,1.855,0,0,1,1.855-1.855h48.652A1.22,1.22,0,0,0,2351.086,3466.66Z" transform="translate(-2294.745 -3450.325)"/><path class="d" d="M2347.212,3466.187v3.712h-47.689a1.857,1.857,0,0,1-1.855-1.856h0a1.855,1.855,0,0,1,1.855-1.856Z" transform="translate(-2293.053 -3448.633)"/><path class="s" d="M2346.153,3458.466v-2.177a1.219,1.219,0,0,0-1.219-1.219h-43.29a4.613,4.613,0,0,0-4.614,4.613h0v3.713h0a4.613,4.613,0,0,0,4.614,4.613h43.29a1.217,1.217,0,0,0,1.219-1.218v-2.177a1.218,1.218,0,0,0-1.219-1.219H2303.5a1.856,1.856,0,0,1-1.857-1.855h0a1.857,1.857,0,0,1,1.857-1.857h41.434A1.217,1.217,0,0,0,2346.153,3458.466Z" transform="translate(-2293.421 -3455.069)"/><path class="t" d="M2342.858,3457.991v3.713H2301.81a1.857,1.857,0,0,1-1.857-1.855h0a1.858,1.858,0,0,1,1.857-1.857Z" transform="translate(-2291.73 -3453.378)"/></g><g transform="translate(50.886 124.337)"><path class="d" d="M2143.5,3458.309h23.835a1.962,1.962,0,0,1,1.947,2.194l-2.016,16.842a1.961,1.961,0,0,1-1.947,1.728h-19.8a1.961,1.961,0,0,1-1.947-1.728l-2.016-16.842A1.962,1.962,0,0,1,2143.5,3458.309Z" transform="translate(-2140.561 -3438.345)"/><path class="a" d="M2163.961,3458.756V3451.1l-4.582,8.706v-14.139l-3.6,8.9-3.6-8.9V3459.8l-4.582-8.706v7.659l-6.676-10.735,2.941,17.608H2167.7l2.941-17.608Z" transform="translate(-2140.921 -3445.665)"/></g><circle class="l" cx="6.323" cy="6.323" r="6.323" transform="translate(96.937 149.217)"/></g><g transform="translate(682.781 390.398)"><path class="d" d="M2534.718,3528.627l-3.549,29.448-4.266,35.358-2.681,22.23-.913,7.539-2.681,22.235-2.261,18.747H2513l4.948-40.977,2.677-22.235.912-7.539,2.682-22.23v0l1.779-14.752,3.354-27.819Z" transform="translate(-2477.797 -3478.898)"/><path class="d" d="M2557.471,3664.183h-5.363l-11.95-99.1-4.4-36.46h5.363l4.612,38.22Z" transform="translate(-2464.625 -3478.898)"/><path class="d" d="M2512.419,3528.627l-2.26,18.726-9.148,75.849-2.681,22.235-2.261,18.747h-5.363l4.942-40.977,2.682-22.235,6.667-55.252,2.06-17.092Z" transform="translate(-2490.705 -3478.898)"/><path class="d" d="M2535.172,3664.183h-5.363l-5.85-48.521-2.682-22.23-4.816-39.924-3-24.882h5.363l3.218,26.646,1.919,15.925v0l2.682,22.23Z" transform="translate(-2477.534 -3478.898)"/><rect class="d" width="77.966" height="8.619" rx="2.652" transform="translate(6.337 41.108)"/><rect class="e" width="44.409" height="8.619" rx="2.652" transform="translate(6.337 41.108)"/><path class="d" d="M2512.517,3509.893h24.056a1.98,1.98,0,0,1,1.966,2.215l-2.035,17a1.98,1.98,0,0,1-1.966,1.745h-19.985a1.981,1.981,0,0,1-1.966-1.745l-2.035-17A1.98,1.98,0,0,1,2512.517,3509.893Z" transform="translate(-2479.225 -3489.742)"/><path class="q" d="M2533.166,3510.344v-7.729l-4.625,8.787v-14.271l-3.634,8.985-3.633-8.985V3511.4l-4.625-8.787v7.729l-6.739-10.835,2.969,17.772h24.056l2.969-17.772Z" transform="translate(-2479.587 -3497.131)"/><path class="f" d="M2507.18,3528.627l-2.26,18.726-5.163-1.634,2.06-17.092Z" transform="translate(-2485.466 -3478.898)"/><path class="f" d="M2522.04,3555.273l-5.579-1.764-3-24.882h5.363Z" transform="translate(-2477.534 -3478.898)"/><path class="f" d="M2529.952,3528.627l-3.549,29.448-5.167-1.629,3.354-27.819Z" transform="translate(-2473.032 -3478.898)"/><path class="f" d="M2545.732,3566.847l-5.574-1.759-4.4-36.46h5.363Z" transform="translate(-2464.625 -3478.898)"/></g><g transform="translate(83.571 119.625)"><path class="t" d="M2.633,0H83.887A2.633,2.633,0,0,1,86.52,2.633v68.1a2.633,2.633,0,0,1-2.633,2.633H2.633A2.633,2.633,0,0,1,0,70.736V2.633A2.633,2.633,0,0,1,2.633,0Z" transform="translate(0 5.207)"/><path class="q" d="M2197.712,3333.091v12.263h-86.52v-12.263a4.156,4.156,0,0,1,4.157-4.157h78.206A4.156,4.156,0,0,1,2197.712,3333.091Z" transform="translate(-2111.192 -3323.725)"/><g transform="translate(21.301)"><rect class="q" width="4.292" height="10.414" rx="1.359"/><rect class="q" width="4.292" height="10.414" rx="1.359" transform="translate(39.625)"/></g><g transform="translate(24.707 33.086)"><path class="q" d="M2126.84,3365.429l9.235-8.294a16.8,16.8,0,0,0,1.41-1.445,2.766,2.766,0,0,0,.706-1.88,2.28,2.28,0,0,0-.873-1.9,3.211,3.211,0,0,0-2.048-.688,2.814,2.814,0,0,0-2.2.873,3.515,3.515,0,0,0-.889,2.149l-5.038-.37a8.2,8.2,0,0,1,.773-3.207,6.724,6.724,0,0,1,1.78-2.267,7.474,7.474,0,0,1,2.6-1.359,11.084,11.084,0,0,1,3.242-.454,9.794,9.794,0,0,1,3.022.454,7.044,7.044,0,0,1,2.452,1.342,6.114,6.114,0,0,1,1.628,2.234,7.733,7.733,0,0,1,.588,3.123,8.389,8.389,0,0,1-.235,2.065,6.968,6.968,0,0,1-.654,1.678,7.707,7.707,0,0,1-.991,1.395,16.164,16.164,0,0,1-1.242,1.242l-7.22,6.213h10.545v4.432H2126.84Z" transform="translate(-2126.84 -3346.591)"/><path class="q" d="M2148.213,3362.273q-.4.1-.805.167a5.05,5.05,0,0,1-.84.068,7.538,7.538,0,0,1-3.057-.6,7.052,7.052,0,0,1-2.35-1.645,7.305,7.305,0,0,1-1.511-2.468,8.529,8.529,0,0,1-.538-3.04,7.748,7.748,0,0,1,2.568-5.909,8.455,8.455,0,0,1,2.8-1.663,10.612,10.612,0,0,1,6.969,0,8.42,8.42,0,0,1,2.82,1.663,7.751,7.751,0,0,1,2.569,5.909,10.792,10.792,0,0,1-.235,2.333,12.191,12.191,0,0,1-.621,2,12.9,12.9,0,0,1-.906,1.795q-.521.857-1.093,1.764l-5.2,8.126h-6.147Zm-4.062-7.321a3.615,3.615,0,0,0,1.058,2.67,4.156,4.156,0,0,0,5.541,0,3.9,3.9,0,0,0,0-5.338,4.156,4.156,0,0,0-5.541,0A3.614,3.614,0,0,0,2144.15,3354.952Z" transform="translate(-2119.736 -3346.591)"/></g><rect class="q" width="21.628" height="1.749" rx="0.554" transform="translate(32.446 68.012)"/></g><g transform="translate(0 411.911)"><path class="q" d="M2115.608,3574.356c18.751-34.33-40.44-50.472-54.71-36.855S2093.934,3614.038,2115.608,3574.356Z" transform="translate(-2058.262 -3498.065)"/><path class="q" d="M2118.6,3576.569c36.8,0,20.144-65.812,4.411-65.812C2103.284,3510.757,2076.084,3576.569,2118.6,3576.569Z" transform="translate(-2036.365 -3510.757)"/><path class="q" d="M2131.862,3586.376c30.335,24.7,57-30.561,46.212-47.074S2096.8,3557.831,2131.862,3586.376Z" transform="translate(-2021.269 -3496.689)"/><path class="r" d="M2124.927,3599.091a109.176,109.176,0,0,0-22.275-32.809,125.742,125.742,0,0,0-33.894-24.872,1.022,1.022,0,0,0-.842,1.863,123.713,123.713,0,0,1,33.323,24.488,107.18,107.18,0,0,1,21.828,32.183c.57,1.318,1.1,2.649,1.606,3.988h2.187C2126.257,3602.3,2125.618,3600.689,2124.927,3599.091Z" transform="translate(-2053.021 -3493.064)"/><path class="r" d="M2115.126,3519.722a1.023,1.023,0,0,0-2.031-.242,894.727,894.727,0,0,0-4.963,97.615h2.045A892.236,892.236,0,0,1,2115.126,3519.722Z" transform="translate(-2029.397 -3506.228)"/><path class="r" d="M2171.66,3542.595a1.026,1.026,0,0,0-1.419-.283,193.124,193.124,0,0,0-30.09,26.355c-8.271,8.894-17.671,20.816-24.558,34.789h2.286a148.006,148.006,0,0,1,23.737-33.362,190.941,190.941,0,0,1,29.762-26.082A1.023,1.023,0,0,0,2171.66,3542.595Z" transform="translate(-2025.073 -3492.588)"/><path class="d" d="M2123.828,3580.975h-37.669a1.614,1.614,0,0,0-1.534,2.115l1.8,5.528.911,2.8,13.045,40.019a2.64,2.64,0,0,0,2.509,1.822H2149.9a2.64,2.64,0,0,0,2.51-1.822l13.043-40.019.911-2.8,1.8-5.528a1.615,1.615,0,0,0-1.536-2.115h-42.808Z" transform="translate(-2043.048 -3470.107)"/><path class="f" d="M2165.68,3585.816l-.912,2.8h-78.121l-.912-2.8Z" transform="translate(-2042.357 -3467.306)"/></g></svg>