<svg xmlns="http://www.w3.org/2000/svg" width="832.334" height="747.961" viewBox="-300 -50 832.334 747.961"><g transform="translate(-1284.409 -1125.711)"><g transform="translate(-83 -16)"><g transform="translate(-43.602 2399)"><g transform="translate(1411.011 -1129.011)"><path d="M4.762,0H87.957a0,0,0,0,1,0,0V217.561a0,0,0,0,1,0,0H4.762A4.762,4.762,0,0,1,0,212.8V4.762A4.762,4.762,0,0,1,4.762,0Z" transform="translate(0)" fill="#86a2e2"/><path d="M0,0H228.872a4.762,4.762,0,0,1,4.762,4.762V212.8a4.762,4.762,0,0,1-4.762,4.762H0a0,0,0,0,1,0,0V0A0,0,0,0,1,0,0Z" transform="translate(87.957)" fill="#aec3ff"/><rect width="184.929" height="69.381" transform="translate(112.31 31.25)" fill="#d2dcff"/><rect width="184.929" height="69.381" transform="translate(112.31 116.929)" fill="#d2dcff"/><rect width="71.717" height="5.913" rx="1.107" transform="translate(168.915 81.778)" fill="#aec3ff"/><rect width="71.717" height="5.913" rx="1.107" transform="translate(168.915 167.457)" fill="#aec3ff"/><path d="M1673.016,1333.466l-3.466,15.63-19.181,86.493h-7.5l12.809-86.773,2.266-15.349Z" transform="translate(-1642.865 -1115.906)" fill="#d2dcff"/><path d="M1713.256,1333.466l-3.865,17.429-18.782,84.693h-7.5l12.543-84.971,2.532-17.151Z" transform="translate(-1593.636 -1115.906)" fill="#d2dcff"/><path d="M1804.094,1435.589h-7.5l-17.974-81.051-4.673-21.071h15.075l3.152,21.346Z" transform="translate(-1482.505 -1115.906)" fill="#d2dcff"/><path d="M1763.855,1435.589h-7.5l-18.377-82.865-4.27-19.257h15.075l2.884,19.533Z" transform="translate(-1531.734 -1115.906)" fill="#d2dcff"/><path d="M1650.892,1333.466h15.075l-3.466,24.551-13.875-.44Z" transform="translate(-1635.817 -1115.906)" fill="#aec3ff"/><path d="M1691.279,1333.466h15.075l-3.865,27.377-13.742-.436Z" transform="translate(-1586.734 -1115.906)" fill="#aec3ff"/><path d="M1748.78,1333.466l2.884,30.683-13.689-.434-4.27-30.248Z" transform="translate(-1531.734 -1115.906)" fill="#aec3ff"/><path d="M1792.171,1367l-13.554-.431-4.673-33.1h15.075Z" transform="translate(-1482.505 -1115.906)" fill="#aec3ff"/></g><g transform="translate(1571.922 -1319.97)"><path d="M2078.9,1392.33v-5.394a2.969,2.969,0,0,0-2.915-3.019H1955.131a11.242,11.242,0,0,0-11.041,11.433h0v9.2h0a11.242,11.242,0,0,0,11.041,11.433h120.852a2.969,2.969,0,0,0,2.915-3.019v-5.394a2.969,2.969,0,0,0-2.915-3.021H1959.572a4.521,4.521,0,0,1-4.441-4.6h0a4.521,4.521,0,0,1,4.441-4.6h116.412A2.969,2.969,0,0,0,2078.9,1392.33Z" transform="translate(-1942.917 -1225.048)" fill="#ff78ba"/><path d="M2067.68,1370.633v-5.394a2.968,2.968,0,0,0-2.915-3.019H1961.182a11.242,11.242,0,0,0-11.041,11.433h0v9.2h0a11.242,11.242,0,0,0,11.041,11.433h103.583a2.969,2.969,0,0,0,2.915-3.021v-5.394a2.968,2.968,0,0,0-2.915-3.019h-99.142a4.521,4.521,0,0,1-4.441-4.6h0a4.521,4.521,0,0,1,4.441-4.6h99.142A2.968,2.968,0,0,0,2067.68,1370.633Z" transform="translate(-1940.333 -1235.413)" fill="#ffd9e8"/><path d="M2060.537,1369.957v9.2h-98.218a4.521,4.521,0,0,1-4.441-4.6h0a4.521,4.521,0,0,1,4.441-4.6Z" transform="translate(-1937.03 -1231.717)" fill="#eff1fa"/><path d="M2066.972,1391.654v9.2h-110.19a4.8,4.8,0,0,1-4.982-4.6h0a4.8,4.8,0,0,1,4.982-4.6Z" transform="translate(-1939.625 -1221.351)" fill="#eff1fa"/><path d="M2079.872,1348.936v-5.394a2.97,2.97,0,0,0-2.917-3.021H1973.374a11.242,11.242,0,0,0-11.04,11.433h0v9.2h0a11.242,11.242,0,0,0,11.04,11.433h103.581a2.97,2.97,0,0,0,2.917-3.02v-5.394a2.968,2.968,0,0,0-2.917-3.019h-99.142a4.522,4.522,0,0,1-4.439-4.6h0a4.521,4.521,0,0,1,4.439-4.6h99.142A2.97,2.97,0,0,0,2079.872,1348.936Z" transform="translate(-1935.128 -1245.779)" fill="#86a2e2"/><path d="M2072.729,1348.259v9.2H1974.51a4.522,4.522,0,0,1-4.439-4.6h0a4.521,4.521,0,0,1,4.439-4.6Z" transform="translate(-1931.824 -1242.083)" fill="#eff1fa"/></g></g><path d="M2514.731,3509.894h50.952a4.223,4.223,0,0,1,4.164,4.743l-4.311,36.4a4.209,4.209,0,0,1-4.164,3.736h-42.331a4.212,4.212,0,0,1-4.164-3.736l-4.311-36.4A4.225,4.225,0,0,1,2514.731,3509.894Z" transform="translate(-1057.9 -2285.797)" fill="#d2dcff"/><path d="M2559.168,3525.428v-16.553l-9.8,18.817v-30.562l-7.7,19.243-7.7-19.243v30.562l-9.8-18.817v16.553l-14.273-23.2,6.29,38.06h50.953l6.288-38.06Z" transform="translate(-1059.368 -2316.189)" fill="#fe9ecc"/></g><g transform="translate(1631.439 1383.69)"><path d="M2124.991,3581.176c21.819-39.947-47.057-58.73-63.662-42.886S2099.771,3627.35,2124.991,3581.176Z" transform="translate(-2058.262 -3492.402)" fill="#fe9ecc"/><path d="M2122.279,3587.337c42.817,0,23.44-76.581,5.133-76.581C2104.461,3510.756,2072.811,3587.337,2122.279,3587.337Z" transform="translate(-2026.593 -3510.756)" fill="#fe9ecc"/><path d="M2133.448,3594.773c35.3,28.737,66.326-35.561,53.774-54.777S2092.647,3561.558,2133.448,3594.773Z" transform="translate(-2004.761 -3490.411)" fill="#fe9ecc"/><path d="M2134.354,3608.544a127.042,127.042,0,0,0-25.92-38.177,146.307,146.307,0,0,0-39.44-28.942,1.189,1.189,0,0,0-.979,2.168,143.962,143.962,0,0,1,38.775,28.5,124.723,124.723,0,0,1,25.4,37.449c.663,1.533,1.277,3.082,1.869,4.641h2.545C2135.9,3612.283,2135.158,3610.4,2134.354,3608.544Z" transform="translate(-2050.682 -3485.169)" fill="#ff78ba"/><path d="M2116.272,3519.909a1.19,1.19,0,0,0-2.363-.281,1041.07,1041.07,0,0,0-5.775,113.587h2.38A1038.262,1038.262,0,0,1,2116.272,3519.909Z" transform="translate(-2016.516 -3504.207)" fill="#ff78ba"/><path d="M2180.834,3542.669a1.194,1.194,0,0,0-1.652-.329,224.748,224.748,0,0,0-35.014,30.667c-9.624,10.349-20.562,24.222-28.577,40.481h2.66c7.834-15.543,18.347-28.843,27.621-38.821a222.2,222.2,0,0,1,34.632-30.35A1.19,1.19,0,0,0,2180.834,3542.669Z" transform="translate(-2010.263 -3484.48)" fill="#ff78ba"/><path d="M2130.256,3580.976h-43.833a1.878,1.878,0,0,0-1.785,2.461l2.1,6.432,1.06,3.254,15.179,46.567a3.072,3.072,0,0,0,2.919,2.12H2160.6a3.073,3.073,0,0,0,2.921-2.12l15.177-46.567,1.06-3.254,2.1-6.432a1.88,1.88,0,0,0-1.788-2.461h-49.812Z" transform="translate(-2036.258 -3451.967)" fill="#d2dcff"/><path d="M2178.76,3585.816l-1.061,3.255h-90.9l-1.061-3.255Z" transform="translate(-2035.26 -3447.915)" fill="#fe9ecc"/></g><path d="M2078.076,1327.238v-5.394a2.969,2.969,0,0,0-2.915-3.019H1954.309a11.242,11.242,0,0,0-11.041,11.433h0v9.2h0a11.242,11.242,0,0,0,11.041,11.433h120.852a2.969,2.969,0,0,0,2.915-3.019v-5.394a2.969,2.969,0,0,0-2.915-3.021H1958.75a4.521,4.521,0,0,1-4.441-4.6h0a4.521,4.521,0,0,1,4.441-4.6h116.412A2.97,2.97,0,0,0,2078.076,1327.238Z" transform="translate(-497.947 -193.114)" fill="#fe9ecc"/><path d="M2071.045,1326.562v9.2H1956.171c-2.869,0-5.194-2.058-5.194-4.6h0c0-2.54,2.325-4.6,5.194-4.6Z" transform="translate(-494.656 -189.418)" fill="#eff1fa"/></g></svg>